<?xml version="1.0" encoding="utf-8"?>
<!-- Generator: Adobe Illustrator 24.1.1, SVG Export Plug-In . SVG Version: 6.00 Build 0)  -->
<svg version="1.1" id="Layer_1" xmlns="http://www.w3.org/2000/svg" xmlns:xlink="http://www.w3.org/1999/xlink" x="0px" y="0px"
	 viewBox="0 0 512 512" style="enable-background:new 0 0 512 512;" xml:space="preserve">
<style type="text/css">
	.st0{fill:#73C3F9;}
	.st1{fill:#1C2E7A;}
	.st2{fill:#142766;}
	.st3{fill:#A05838;}
	.st4{fill:#FCAD6D;}
	.st5{fill:#FD995B;}
	.st6{fill:#BEC8F7;}
	.st7{fill:#F9BA8F;}
	.st8{fill:#3C58A0;}
	.st9{fill:#E80054;}
	.st10{fill:#FF7186;}
	.st11{fill:#FF4155;}
	.st12{fill:#E9EFFF;}
	.st13{fill:#D3DCFB;}
	.st14{fill:#FFDD40;}
	.st15{fill:#FFB332;}
	.st16{fill:#FF9100;}
	.st17{fill:#2A428C;}
	.st18{fill:#9BD8F9;}
</style>
<g>
	<path class="st0" d="M445.8,421.9C480.3,379.7,501,325.7,501,267c0-135.3-109.7-245-245-245S11,131.7,11,267
		c0,58.7,20.7,112.7,55.2,154.9L445.8,421.9z"/>
	<ellipse class="st1" cx="256" cy="172.5" rx="99.6" ry="29"/>
	<path class="st2" d="M256,143.5c-1.7,0-3.3,0-5,0c-1.6,1.9-2.5,3-2.5,3s59.6,24.9,4.4,55c1.1,0,2.1,0,3.2,0c55,0,99.6-13,99.6-29
		C355.6,156.5,311,143.5,256,143.5z"/>
	<path class="st3" d="M186,153.2c-8.2,2.4-15.8,5.2-20.7,8.4c0.8,14.5,3.6,27.6,3.6,27.6c2.6,0.2,6.3,1.2,8.4,2.2
		c0.5-3.1,1.3-7.2,2.5-10.1c0.9-2.3,2-4.6,3.4-6.7c2.4-3.8,3.5-8.2,3.2-12.6C186.1,159.4,185.9,156.4,186,153.2L186,153.2z"/>
	<path class="st3" d="M326,153.2c0,3.2-0.1,6.1-0.3,8.6c-0.3,4.5,0.7,8.9,3.1,12.7c1.4,2.2,2.6,4.6,3.5,6.9c1.1,2.9,1.9,6.9,2.4,9.9
		c2.6-1.3,7.2-2.6,10.4-2.2c0.3-11.1,1.2-23.9,1.5-27.6C341.8,158.5,334.2,155.6,326,153.2L326,153.2z"/>
	<path class="st4" d="M349.9,190c-3.9-3.6-11.7-1.8-15.1,0.4c0.7,4.6,0.8,9.3,0.1,14l-4,29c0,2.3-0.1,4.6-0.2,6.9
		c9.7,2.9,14.5-5.8,15.4-11.8c0.4-2.6,0.9-5.1,1.7-7.6C350.4,212.9,359.7,199,349.9,190L349.9,190z"/>
	<path class="st5" d="M342.5,214.4c-3.2,0-6.1-0.9-8.6-2.6l-3,21.6c0,2.3-0.1,4.6-0.2,6.9c9.7,2.9,14.5-5.8,15.4-11.8
		c0.4-2.6,0.9-5.1,1.7-7.6c0.8-2.6,2.4-5.9,3.8-9.4C349,213.3,345.9,214.4,342.5,214.4L342.5,214.4z"/>
	<path class="st4" d="M162.1,190c3.9-3.6,11.7-1.8,15.1,0.4c-0.7,4.6-0.8,9.3-0.1,14l4,29c0,2.3,0.1,4.6,0.2,6.9
		c-9.7,2.9-14.5-5.8-15.4-11.8c-0.4-2.6-0.9-5.1-1.7-7.6C161.6,212.9,152.3,199,162.1,190z"/>
	<path class="st5" d="M178.3,212.8c-2.1,1-4.4,1.6-6.9,1.6c-4.8,0-9-2.1-11.9-5.5c1.5,4.5,3.7,8.7,4.7,12c0.8,2.5,1.4,5,1.7,7.6
		c0.8,6,5.6,14.7,15.4,11.8c-0.1-2.3-0.2-4.6-0.2-6.9L178.3,212.8z"/>
	<path class="st4" d="M312.5,368.9l18.1-24.7c-3.9-1.2-7.9-2.2-11.9-3.1c-9.7-9.7-12.2-28.1-12.6-41c-5.1,5.9-10.4,10.8-15.4,14.8
		c-9.9,7.7-22.1,11.9-34.7,11.9c-12.6,0-24.8-4.2-34.7-11.9c-5.1-3.9-10.4-8.9-15.4-14.8c-0.4,12.9-2.9,31.3-12.6,41
		c-4,0.9-8,2-11.9,3.1l18.1,24.7H312.5z"/>
	<path class="st5" d="M231.1,357.4c1.7-0.2,3.2-1,4.3-2.3c6.8-8.6,11.1-18.8,13.9-28.7c-10.2-1.2-19.9-5.1-28-11.5
		c-5.1-3.9-10.4-8.9-15.4-14.8c-0.4,12.9-2.9,31.3-12.6,41c-4,0.9-8,2-11.9,3.1l18.1,24.7h16.6C221.4,359.7,227.8,357.7,231.1,357.4
		L231.1,357.4z"/>
	<path class="st6" d="M210.4,383.8l36,49c4.8,6.5,14.5,6.5,19.2,0l36-49H210.4z"/>
	<path class="st7" d="M329.9,174.5c-2.4-3.8-3.5-8.3-3.1-12.7c0.2-2.5,0.3-5.4,0.3-8.6c-18.1-5.4-43.2-8.7-71-8.7
		c-27.8,0-52.9,3.3-71,8.7c0,3.2,0.1,6.2,0.3,8.7c0.3,4.4-0.8,8.9-3.2,12.6c-1.4,2.2-2.5,4.5-3.4,6.7c-2.9,7.4-3.7,15.3-2.6,23.1
		l4,29c0,41.7,22.3,70.1,41.2,84.8c9.9,7.7,22.1,11.9,34.7,11.9s24.8-4.2,34.7-11.9c18.9-14.7,41.2-43.1,41.2-84.8l4-29
		c1.1-7.7,0.3-15.6-2.5-22.9C332.4,179.1,331.3,176.8,329.9,174.5L329.9,174.5z"/>
	<path class="st4" d="M271.2,317.5C252.3,302,230,272,230,227.8l-4-30.7c-1.1-8.3-0.2-16.7,2.6-24.5c0.9-2.4,2-4.8,3.4-7.1
		c2.4-4,3.5-8.7,3.2-13.3c-0.1-2.1-0.2-4.4-0.3-7c-19.3,1.2-36.5,4.1-49.9,8c0,3.2,0.1,6.2,0.3,8.7c0.3,4.4-0.8,8.9-3.2,12.6
		c-1.4,2.2-2.5,4.5-3.4,6.7c-2.9,7.4-3.7,15.3-2.6,23.1l4,29c0,41.7,22.3,70.1,41.2,84.8c9.9,7.7,22.1,11.9,34.7,11.9
		c8.8,0,17.5-2.1,25.3-5.9C277.7,322.3,274.3,320.1,271.2,317.5z"/>
	<path class="st8" d="M447.5,419.9c-4.3-7.5-9.8-14.3-16.7-20l-164.5,99.8c-6.1,3.7-14.3,3.7-20.4,0L81.2,399.9
		c-6.9,5.7-12.4,12.5-16.7,20C109.4,476,178.5,512,256,512S402.6,476,447.5,419.9L447.5,419.9z"/>
	<path class="st1" d="M138,439.4c1.1-1,1.8-2.4,1.9-3.9l-58.7-35.6c-6.9,5.7-12.4,12.5-16.7,20c17.2,21.5,37.9,40,61.2,54.6
		C127.2,452.1,134.3,442.8,138,439.4z"/>
	<path class="st9" d="M274,372.1c-0.9-2.5-0.7-5.1,0.5-7.4h-18.6h-17.8c1.2,2.2,1.4,4.9,0.5,7.4c-1.1,2.9-2.7,6.7-5.1,10.7
		l10.9,14.6h23.3l11.2-15C276.5,378.6,275,374.9,274,372.1L274,372.1z"/>
	<path class="st10" d="M267.7,397.4c-8.4,0-15,0-23.3,0l-7.5,22.3l9.6,13.1c4.8,6.5,14.5,6.5,19.2,0l9.6-13.1L267.7,397.4z"/>
	<path class="st11" d="M248.6,434.8l5.9-17.5c1.8-5.2,6.6-8.7,12.1-8.7h4.7l-3.8-11.2c-8.4,0-15,0-23.3,0l-7.5,22.3l9.6,13.1
		c0.8,1.1,1.7,1.9,2.7,2.6L248.6,434.8z"/>
	<path class="st12" d="M293.6,399.3l35.2-47.9c0.5-4.6,0.7-7.6,0.7-7.6l-11.6-14.3c-3-3.7-8.5-3.9-11.7-0.5L274,362.7
		c-2.4,2.5-3.2,6.2-2,9.5C274.7,379.4,280.9,392.1,293.6,399.3L293.6,399.3z"/>
	<path class="st12" d="M218.5,399.6c13-7.2,19.3-20.1,22-27.4c1.2-3.3,0.4-6.9-2-9.5L206.3,329c-3.3-3.4-8.7-3.2-11.7,0.5
		l-12.1,14.3c0,0,0.2,3,0.7,7.7L218.5,399.6z"/>
	<path class="st13" d="M231.1,357.4c0.6-0.1,1.3-0.2,1.9-0.5L206.3,329c-3.3-3.4-8.7-3.2-11.7,0.5l-12.1,14.3c0,0,0.2,3,0.7,7.7
		l24.3,33.1c1.8-0.7,3.2-2.2,3.7-4.1C216.8,361.1,226.7,357.8,231.1,357.4L231.1,357.4z"/>
	<path class="st14" d="M430.3,382.6c-3.1-1.9-6.5-3.6-10.1-5l-11.5-4.3l-143.4,99c-5.7,3.9-13.1,3.9-18.8,0l-142.9-98.7l-18.9,7.1
		c-1.1,0.6-2.2,1.2-3.3,1.9c-7.3,4.4-7.1,15,0.1,19.5l164.1,99.5c6.3,3.8,14.1,3.8,20.4,0l164.1-99.5
		C437.6,397.6,437.6,387,430.3,382.6L430.3,382.6z"/>
	<path class="st15" d="M155.6,409.5l-51.9-35.8l-18.9,7.1c-1.1,0.6-2.2,1.2-3.3,1.9c-7.3,4.4-7.1,15,0.1,19.5l57.8,35.1
		c0.3-0.8,0.5-1.7,0.4-2.6C139.6,425.1,146.3,416.6,155.6,409.5z"/>
	<path class="st15" d="M265.6,430.9c-4.8,6.5-14.5,6.5-19.2,0l-63.9-87L102,374.3l144.6,99.9c5.7,3.9,13.1,3.9,18.8,0l145.2-100.3
		l-81.1-30.1L265.6,430.9z"/>
	<path class="st16" d="M154.3,410.5c16.8-13.5,43.6-22.7,52.8-25.7c1.4-0.5,2.7-1.4,3.4-2.7l-28.1-38.3L102,374.3L154.3,410.5z"/>
	<g>
		<path class="st8" d="M405.4,65L269.1,2.8c-8.3-3.8-17.9-3.8-26.2,0L106.6,65c-12.6,5.8-12.6,23.7,0,29.5l52.2,23.8v-14.2
			c0-6.4,10.3-13.2,27.4-18.2c38.5-11.2,101-11.2,139.5,0c17.2,5,27.4,11.8,27.4,18.2v14.2l52.2-23.8
			C418.1,88.7,418.1,70.7,405.4,65z"/>
	</g>
	<path class="st17" d="M106.6,65c-12.6,5.8-12.6,23.7,0,29.5l52.2,23.8v-14.2c0-6.4,10.3-13.2,27.4-18.2c17.2-5,39.3-7.8,61.9-8.3
		c4.1-1.8,7.9-2.5,7.9-2.5c-55-29.2-13.1-72.2-13.1-72.2L106.6,65z"/>
	<path class="st17" d="M256,75c-55,0-99.6,13-99.6,29v68.4h0.5c5.1-14.6,47.5-26.1,99.1-26.1s94,11.4,99.1,26.1h0.5v-68.4
		C355.6,88,311,75,256,75z"/>
	<path class="st1" d="M256,75c-55,0-99.6,13-99.6,29v68.4h0.5c4.9-13.9,43.4-24.9,91.5-26v0c-11.1-4.3-10.9-15.6-10.9-15.6
		s0-32,0-42.1C237.6,78.7,256,75,256,75z"/>
	<g>
		<path class="st14" d="M315.4,211.1c-5.3,0-9.5-4.3-9.5-9.5v-37.3c0-5.3,4.3-9.5,9.5-9.5s9.5,4.3,9.5,9.5v37.3
			C324.9,206.8,320.7,211.1,315.4,211.1z"/>
	</g>
	<path class="st15" d="M315.4,154.7c-5.3,0-9.5,4.3-9.5,9.5v28.2c0-5.3,4.3-9.5,9.5-9.5c5.3,0,9.5,4.3,9.5,9.5v-28.2
		C324.9,159,320.7,154.7,315.4,154.7z"/>
	<g>
		<path class="st14" d="M315.4,141c-4,0-7.2-3.2-7.2-7.2V8.1c0-4,3.2-7.2,7.2-7.2s7.2,3.2,7.2,7.2v125.8
			C322.6,137.8,319.4,141,315.4,141z"/>
	</g>
	<path class="st15" d="M334.1,149.8c0,10.3-8.4,18.7-18.7,18.7s-18.7-8.4-18.7-18.7s8.4-18.7,18.7-18.7S334.1,139.5,334.1,149.8z"/>
	<circle class="st14" cx="319.1" cy="143.9" r="8"/>
	<g>
		<path class="st18" d="M391,168.5c-3.7,49.7-9.9,77.3-27.3,113c-6.7,13.8-1.6,30.4,11.6,38.2c27.8,16.4,75,38.3,112.7,26.2
			c8.4-24.7,13-51.3,13-78.9c0-45.8-12.6-88.7-34.5-125.3C439.9,133.7,394.2,126.4,391,168.5z"/>
		<path class="st18" d="M148.8,281.5c-17.4-35.6-23.6-63.3-27.3-113c-3.2-42.5-49.6-34.7-76.2-26.7C23.5,178.5,11,221.3,11,267
			c0,27.5,4.5,54,12.9,78.7c37.9,12.5,85.4-9.6,113.3-26C150.4,311.9,155.6,295.3,148.8,281.5z"/>
	</g>
</g>
</svg>
