<?xml version="1.0" encoding="utf-8"?>
<!-- Generator: Adobe Illustrator 24.1.1, SVG Export Plug-In . SVG Version: 6.00 Build 0)  -->
<svg version="1.1" id="Capa_1" xmlns="http://www.w3.org/2000/svg" xmlns:xlink="http://www.w3.org/1999/xlink" x="0px" y="0px"
	 viewBox="0 0 426.7 426.7" style="enable-background:new 0 0 426.7 426.7;" xml:space="preserve">
<style type="text/css">
	.st0{fill:#B5F1F4;}
	.st1{clip-path:url(#SVGID_2_);}
	.st2{fill:#F6C358;}
	.st3{fill:#2D93BA;}
	.st4{fill:#27A2DB;}
	.st5{fill:#64798A;}
	.st6{fill:#44C4A1;}
	.st7{fill:#DC8744;}
	.st8{fill:#FCD462;}
	.st9{fill:#FFFFFF;}
	.st10{fill:#3A556A;}
	.st11{fill:#2F4859;}
	.st12{fill:#E56353;}
</style>
<circle class="st0" cx="219.3" cy="218.1" r="207"/>
<g>
	<defs>
		<circle id="SVGID_1_" cx="219.3" cy="218.1" r="207"/>
	</defs>
	<clipPath id="SVGID_2_">
		<use xlink:href="#SVGID_1_"  style="overflow:visible;"/>
	</clipPath>
	<g class="st1">
		<rect x="48.1" y="213.3" class="st2" width="331.1" height="207.5"/>
		<rect x="345.6" y="247" class="st3" width="19.8" height="34.2"/>
		<polygon class="st4" points="345.6,281.3 345.6,247 365.4,247 		"/>
		<rect x="345.6" y="300.6" class="st3" width="19.8" height="34.2"/>
		<polygon class="st4" points="345.6,334.9 345.6,300.6 365.4,300.6 		"/>
		<rect x="345.6" y="354.2" class="st3" width="19.8" height="34.2"/>
		<polygon class="st4" points="345.6,388.5 345.6,354.2 365.4,354.2 		"/>
		<rect x="313.1" y="247" class="st3" width="19.8" height="34.2"/>
		<polygon class="st4" points="313.1,281.3 313.1,247 332.9,247 		"/>
		<rect x="313.1" y="300.6" class="st3" width="19.8" height="34.2"/>
		<polygon class="st4" points="313.1,334.9 313.1,300.6 332.9,300.6 		"/>
		<rect x="313.1" y="354.2" class="st3" width="19.8" height="34.2"/>
		<polygon class="st4" points="313.1,388.5 313.1,354.2 332.9,354.2 		"/>
		<rect x="280.6" y="247" class="st3" width="19.8" height="34.2"/>
		<polygon class="st4" points="280.6,281.3 280.6,247 300.4,247 		"/>
		<rect x="280.6" y="300.6" class="st3" width="19.8" height="34.2"/>
		<polygon class="st4" points="280.6,334.9 280.6,300.6 300.4,300.6 		"/>
		<rect x="280.6" y="354.2" class="st3" width="19.8" height="34.2"/>
		<polygon class="st4" points="280.6,388.5 280.6,354.2 300.4,354.2 		"/>
		<polygon class="st5" points="329,151.2 98.3,151.2 48.1,213.3 379.2,213.3 		"/>
		<path class="st6" d="M274.4,140.6c0,0-14.6-25.1-40.8-9.8c-7.6,4.4-5.5-6.4-17.5,3V90.3c0,0,1.1,16.1,26.6,4
			c7.3-3.4,18.2-7.3,31.7-1.8C274.4,92.5,286.4,110,274.4,140.6z"/>
		<rect x="208.7" y="90.3" class="st7" width="8.7" height="80.8"/>
		<polygon class="st8" points="264.8,194.5 264.8,420.8 161.4,420.8 161.4,194.5 161.4,187.9 213.1,155.6 264.8,187.9 		"/>
		<circle class="st9" cx="212.6" cy="214.7" r="35.3"/>
		<path class="st10" d="M212.6,252.3c-20.8,0-37.7-16.9-37.7-37.7s16.9-37.7,37.7-37.7c20.8,0,37.7,16.9,37.7,37.7
			S233.4,252.3,212.6,252.3z M212.6,181.7c-18.2,0-32.9,14.8-32.9,32.9s14.8,32.9,32.9,32.9c18.2,0,32.9-14.8,32.9-32.9
			S230.8,181.7,212.6,181.7z"/>
		<g>
			<path class="st11" d="M208.1,185h2.5v6.8h-1.1v-5.8h-1.4L208.1,185L208.1,185z"/>
			<path class="st11" d="M215.1,187.7c0.2-0.3,0.3-0.5,0.3-0.8c0-0.3-0.1-0.5-0.3-0.7c-0.2-0.2-0.5-0.3-0.8-0.3
				c-0.6,0-1,0.3-1.4,0.9l-0.9-0.5c0.3-0.4,0.6-0.8,1-1c0.4-0.2,0.8-0.3,1.4-0.3c0.6,0,1.1,0.2,1.5,0.5c0.4,0.4,0.6,0.8,0.6,1.5
				c0,0.3-0.1,0.7-0.3,1c-0.2,0.3-0.5,0.7-1,1.2l-1.6,1.6h3.1v1.1H212v-1l2.1-2.1C214.6,188.3,214.9,187.9,215.1,187.7z"/>
			<path class="st11" d="M185.2,217.1c0.6,0,1-0.2,1.3-0.6c0.3-0.4,0.4-1,0.4-1.7c-0.2,0.2-0.4,0.4-0.7,0.5c-0.3,0.2-0.6,0.2-1,0.2
				c-0.6,0-1.1-0.2-1.5-0.6c-0.4-0.4-0.6-0.9-0.6-1.6c0-0.7,0.2-1.2,0.7-1.6c0.4-0.4,1-0.6,1.7-0.6c1.1,0,1.8,0.5,2.3,1.5
				c0.2,0.6,0.3,1.2,0.3,1.9c0,0.7-0.1,1.3-0.2,1.7c-0.1,0.5-0.4,0.8-0.6,1.1c-0.5,0.5-1.1,0.8-1.9,0.8c-0.7,0-1.4-0.2-2-0.7
				l0.6-0.8c0.1,0.1,0.3,0.2,0.6,0.3C184.8,217.1,185,217.1,185.2,217.1z M185.4,214.6c0.4,0,0.7-0.1,1-0.3c0.3-0.2,0.4-0.5,0.4-0.8
				c0-0.3-0.1-0.6-0.4-0.9c-0.3-0.2-0.6-0.4-0.9-0.4c-0.4,0-0.7,0.1-0.9,0.3c-0.2,0.2-0.4,0.5-0.4,0.9c0,0.3,0.1,0.6,0.3,0.9
				C184.7,214.5,185,214.6,185.4,214.6z"/>
			<path class="st11" d="M213,238.9c-0.6,0-1,0.2-1.3,0.6c-0.3,0.4-0.4,1-0.4,1.7c0.2-0.2,0.4-0.4,0.7-0.5c0.3-0.2,0.6-0.2,1-0.2
				c0.6,0,1.1,0.2,1.5,0.6c0.4,0.4,0.6,0.9,0.6,1.6c0,0.7-0.2,1.2-0.7,1.6c-0.4,0.4-1,0.6-1.7,0.6c-1.1,0-1.8-0.5-2.3-1.5
				c-0.2-0.6-0.3-1.2-0.3-1.9s0.1-1.3,0.2-1.7c0.1-0.5,0.4-0.8,0.6-1.1c0.5-0.5,1.1-0.8,1.9-0.8c0.7,0,1.4,0.2,2,0.7l-0.6,0.8
				c-0.1-0.1-0.3-0.2-0.6-0.3C213.5,239,213.2,238.9,213,238.9z M212.8,241.5c-0.4,0-0.7,0.1-1,0.3s-0.4,0.5-0.4,0.8
				c0,0.3,0.1,0.6,0.4,0.9c0.3,0.2,0.6,0.4,1,0.4c0.4,0,0.7-0.1,1-0.3c0.3-0.2,0.4-0.5,0.4-0.9c0-0.3-0.1-0.6-0.3-0.9
				C213.5,241.6,213.2,241.5,212.8,241.5z"/>
			<path class="st11" d="M237.6,213.9v-1h4v0.9l-1.6,1.8c0.6,0,1.1,0.2,1.5,0.6c0.3,0.4,0.5,0.8,0.5,1.3c0,0.7-0.2,1.2-0.7,1.6
				c-0.5,0.4-1.1,0.6-1.8,0.6c-0.7,0-1.5-0.2-2.2-0.7l0.5-0.9c0.6,0.4,1.1,0.6,1.7,0.6c0.4,0,0.7-0.1,1-0.3c0.3-0.2,0.4-0.5,0.4-0.8
				c0-0.3-0.1-0.6-0.4-0.8c-0.3-0.2-0.7-0.3-1.2-0.3c-0.3,0-0.5,0-0.7,0.1v-0.9l1.6-1.8L237.6,213.9L237.6,213.9z"/>
			<rect x="212.8" y="197.8" class="st11" width="1.4" height="18.3"/>
			<rect x="198.8" y="215.4" class="st11" width="13.3" height="1.6"/>
		</g>
		
			<rect x="217.9" y="205.6" transform="matrix(0.751 -0.6603 0.6603 0.751 -91.7246 199.285)" class="st12" width="0.9" height="31.4"/>
		<circle class="st4" cx="213.5" cy="216.2" r="2.4"/>
		<rect x="31.8" y="420.8" class="st10" width="363.1" height="14.3"/>
		<rect x="191.5" y="354.4" class="st9" width="43.2" height="66.4"/>
		<rect x="128.4" y="247" class="st3" width="19.8" height="34.2"/>
		<polygon class="st4" points="128.4,281.3 128.4,247 148.2,247 		"/>
		<rect x="128.4" y="300.6" class="st3" width="19.8" height="34.2"/>
		<polygon class="st4" points="128.4,334.9 128.4,300.6 148.2,300.6 		"/>
		<rect x="128.4" y="354.2" class="st3" width="19.8" height="34.2"/>
		<polygon class="st4" points="128.4,388.5 128.4,354.2 148.2,354.2 		"/>
		<rect x="95.9" y="247" class="st3" width="19.8" height="34.2"/>
		<polygon class="st4" points="95.9,281.3 95.9,247 115.7,247 		"/>
		<rect x="95.9" y="300.6" class="st3" width="19.8" height="34.2"/>
		<polygon class="st4" points="95.9,334.9 95.9,300.6 115.7,300.6 		"/>
		<rect x="95.9" y="354.2" class="st3" width="19.8" height="34.2"/>
		<polygon class="st4" points="95.9,388.5 95.9,354.2 115.7,354.2 		"/>
		<rect x="63.4" y="247" class="st3" width="19.8" height="34.2"/>
		<polygon class="st4" points="63.4,281.3 63.4,247 83.1,247 		"/>
		<rect x="63.4" y="300.6" class="st3" width="19.8" height="34.2"/>
		<polygon class="st4" points="63.4,334.9 63.4,300.6 83.1,300.6 		"/>
		<rect x="63.4" y="354.2" class="st3" width="19.8" height="34.2"/>
		<polygon class="st4" points="63.4,388.5 63.4,354.2 83.1,354.2 		"/>
		<rect x="174.9" y="275.3" class="st3" width="29.6" height="25.8"/>
		<polygon class="st4" points="174.9,301.1 174.9,275.3 204.5,275.3 		"/>
		<rect x="219.9" y="275.3" class="st3" width="29.6" height="25.8"/>
		<polygon class="st4" points="219.9,301.1 219.9,275.3 249.5,275.3 		"/>
		<rect x="175.6" y="311.5" class="st3" width="29.6" height="25.8"/>
		<polygon class="st4" points="175.6,337.3 175.6,311.5 205.2,311.5 		"/>
		<rect x="220.5" y="311.5" class="st3" width="29.6" height="25.8"/>
		<polygon class="st4" points="220.5,337.3 220.5,311.5 250.1,311.5 		"/>
	</g>
</g>
</svg>
