<?xml version="1.0" encoding="utf-8"?>
<!-- Generator: Adobe Illustrator 24.1.1, SVG Export Plug-In . SVG Version: 6.00 Build 0)  -->
<svg version="1.1" id="Layer_1" xmlns="http://www.w3.org/2000/svg" xmlns:xlink="http://www.w3.org/1999/xlink" x="0px" y="0px"
	 viewBox="0 0 512 512" style="enable-background:new 0 0 512 512;" xml:space="preserve">
<style type="text/css">
	.st0{fill:#7BE492;}
	.st1{fill:#45D987;}
	.st2{fill:#D67B42;}
	.st3{fill:#BE652B;}
	.st4{fill:#F3F3F3;}
	.st5{fill:#E4E4E4;}
	.st6{fill:#43809F;}
	.st7{fill:#3A7190;}
	.st8{fill:#F75632;}
	.st9{fill:#FFCA28;}
	.st10{fill:#FFAE08;}
	.st11{fill:#FFC39C;}
	.st12{fill:#BF6724;}
	.st13{fill:#E33629;}
	.st14{fill:#95491D;}
</style>
<g>
	<path class="st0" d="M489.5,490h-467c-8.3,0-15-6.7-15-15s6.7-15,15-15h467c8.3,0,15,6.7,15,15S497.8,490,489.5,490z"/>
	<path class="st1" d="M489.5,460h-30c8.3,0,15,6.7,15,15s-6.7,15-15,15h30c8.3,0,15-6.7,15-15S497.8,460,489.5,460z"/>
	<path class="st2" d="M70,59.5h80v116H70V59.5z"/>
	<path class="st3" d="M120,59.5h30v116h-30V59.5z"/>
	<path class="st4" d="M458,460H54V191.1L256,36l202,155.1V460z"/>
	<g>
		<path class="st5" d="M428,168.1V460h30V191.1L428,168.1z"/>
	</g>
	<path class="st6" d="M84,417.5v-197l344,0v197H84z"/>
	<path class="st7" d="M398,220.5h30v197h-30V220.5z"/>
	<path class="st8" d="M491.4,199L264.8,25c-5.2-4-12.5-4-17.7,0L20.6,199c-6.4,4.9-7.5,14-2.7,20.3c2.9,3.7,7.2,5.7,11.5,5.7
		c3.1,0,6.2-1,8.8-3L256,54.8L473.8,222c6.4,4.9,15.5,3.7,20.3-2.7C499,213,497.8,203.9,491.4,199L491.4,199z"/>
	<path class="st9" d="M357.5,417.5h-60v-58c0-16.6,13.4-30,30-30s30,13.4,30,30V417.5z"/>
	<path class="st10" d="M327.5,329.5c-5.5,0-10.6,1.5-15,4c9,5.2,15,14.9,15,26v58h30v-58C357.5,342.9,344.1,329.5,327.5,329.5z"/>
	<path class="st11" d="M327.5,328c-16.6,0-30-13.4-30-30v-30h60v30C357.5,314.6,344.1,328,327.5,328z"/>
	<path class="st12" d="M357.5,268.2v15.3c0,10-8.1,18.1-18.1,18.1c-3.8,0-6.9-3.1-6.9-6.9V280h-23.2c-6.5,0-11.8-5.2-11.8-11.7
		c0-5.6,2.2-10.7,5.9-14.4c3.6-3.6,8.7-5.9,14.3-5.9h19.6C348.5,248,357.5,257,357.5,268.2L357.5,268.2z"/>
	<path class="st8" d="M398,417.5h-40.5v-33.8c0-11.2,9.1-20.3,20.3-20.3s20.3,9.1,20.3,20.3V417.5z"/>
	<path class="st8" d="M64,29.5h92v30H64V29.5z"/>
	<path class="st13" d="M126,29.5h30v30h-30V29.5z"/>
	<path class="st8" d="M316.6,374.1L285.8,401c-1.8,1.6-4.5,1.4-6-0.4l-44.3-50.8c-1.6-1.8-1.4-4.5,0.4-6l30.8-26.9
		c1.8-1.6,4.5-1.4,6,0.4l44.3,50.8C318.6,369.8,318.4,372.5,316.6,374.1z"/>
	<path class="st2" d="M84,329.5h110v88H84V329.5z"/>
	<path class="st3" d="M164,329.5h30v88h-30V329.5z"/>
	<path class="st14" d="M164,359.5v58H84v-58H164z"/>
	<path class="st2" d="M84,220.5h66v109H84V220.5z"/>
	<path class="st3" d="M120,220.5h30v109h-30V220.5z"/>
	<circle class="st9" cx="256" cy="148" r="47"/>
	<g>
		<path d="M256,202.5c30.1,0,54.5-24.4,54.5-54.5S286.1,93.5,256,93.5s-54.5,24.4-54.5,54.5S225.9,202.5,256,202.5z M217.3,156.1
			h31.2v30.7C232.9,183.8,220.6,171.6,217.3,156.1z M263.5,186.8v-30.7h31.2C291.4,171.6,279.1,183.8,263.5,186.8z M294.9,141.1
			h-31.4v-31.9C279.5,112.3,292.1,125,294.9,141.1z M248.5,109.2v31.9h-31.4C219.9,125,232.5,112.3,248.5,109.2z"/>
		<path d="M489.5,452.5h-24V225.1l3.7,2.8c4.7,3.6,10.4,5.1,16.3,4.4c5.8-0.8,11-3.8,14.6-8.4c7.4-9.6,5.6-23.5-4.1-30.8l-85.8-65.9
			c-3.3-2.5-8-1.9-10.5,1.4c-2.5,3.3-1.9,8,1.4,10.5l85.8,65.9c3.1,2.4,3.6,6.8,1.3,9.8c-1.1,1.5-2.8,2.4-4.6,2.7
			c-1.9,0.2-3.7-0.3-5.2-1.4L260.6,48.8c-2.7-2.1-6.4-2.1-9.1,0L33.7,216c-1.2,0.9-2.7,1.4-4.3,1.4c-2.2,0-4.2-1-5.6-2.7
			c-1.1-1.5-1.6-3.3-1.4-5.2s1.2-3.5,2.7-4.6l226.6-174c2.5-1.9,6-1.9,8.5,0l115.4,88.6c3.3,2.5,8,1.9,10.5-1.4
			c2.5-3.3,1.9-8-1.4-10.5L269.4,19c-7.9-6.1-18.9-6.1-26.8,0l-85.1,65.3V66.8c3.4-0.7,6-3.7,6-7.3v-30c0-4.1-3.4-7.5-7.5-7.5H64
			c-4.1,0-7.5,3.4-7.5,7.5v30c0,3.6,2.6,6.7,6,7.3v90.5L16,193c-4.7,3.6-7.6,8.8-8.4,14.6c-0.8,5.8,0.8,11.6,4.4,16.3
			c4.2,5.5,10.6,8.6,17.5,8.6c4.9,0,9.5-1.6,13.4-4.6l3.7-2.8v227.4h-24C10.1,452.5,0,462.6,0,475s10.1,22.5,22.5,22.5h467
			c12.4,0,22.5-10.1,22.5-22.5S501.9,452.5,489.5,452.5z M142.5,83h-65V67h65V83z M77.5,98h62.3l-26,20H77.5L77.5,98z M71.5,37h77
			v15h-77V37z M77.5,133h16.7l-16.7,12.8V133z M489.5,482.5h-467c-4.1,0-7.5-3.4-7.5-7.5s3.4-7.5,7.5-7.5h299.9
			c4.1,0,7.5-3.4,7.5-7.5s-3.4-7.5-7.5-7.5H61.5V213.6L256,64.2l194.5,149.3v238.9H355c-4.1,0-7.5,3.4-7.5,7.5s3.4,7.5,7.5,7.5
			h134.5c4.1,0,7.5,3.4,7.5,7.5S493.6,482.5,489.5,482.5z"/>
		<path d="M428,425c4.1,0,7.5-3.4,7.5-7.5v-197c0-2-0.8-3.9-2.2-5.3c-1.4-1.4-3.3-2.2-5.3-2.2l-277.8,0c-0.1,0-0.1,0-0.2,0H84
			c-4.1,0-7.5,3.4-7.5,7.5v197c0,4.1,3.4,7.5,7.5,7.5H428z M365,410v-26.3c0-7,5.7-12.8,12.8-12.8s12.8,5.7,12.8,12.8V410H365z
			 M420.5,410h-15v-26.3c0-15.3-12.4-27.8-27.8-27.8c-4.6,0-8.9,1.1-12.8,3.1c-0.1-12.6-6.5-23.7-16.1-30.4
			c9.7-6.8,16.1-18,16.1-30.8v-14.5c0,0,0,0,0,0v-15.3c0,0,0,0,0,0V268c0,0,0-0.1,0-0.1c-0.2-15.1-12.5-27.4-27.7-27.4h-19.6
			c-7.4,0-14.3,2.9-19.6,8.1c-5.1,5.1-8,11.9-8.1,19.1c0,0.1,0,0.2,0,0.3v30c0,12.7,6.4,24,16.1,30.8c-2.8,1.9-5.3,4.2-7.4,6.8
			l-20.3-23.2c-2.1-2.4-4.9-3.8-8.1-4c-3.1-0.2-6.2,0.8-8.5,2.9L231,338.1c-2.4,2.1-3.8,4.9-4,8.1c-0.2,3.1,0.8,6.2,2.9,8.5
			l44.3,50.8c2.1,2.4,4.9,3.8,8.1,4c0.3,0,0.5,0,0.8,0c2.5,0,5-0.8,7-2.3v2.8h-88.5v-80.5c0-4.1-3.4-7.5-7.5-7.5h-36.5v-94l263,0
			V410z M305,287c1.4,0.3,2.8,0.5,4.3,0.5H325v7.1c0,8,6.5,14.4,14.4,14.4c3,0,5.8-0.5,8.4-1.4c-3.6,7.6-11.4,12.9-20.4,12.9
			c-12.4,0-22.5-10.1-22.5-22.5V287z M350,268.1c0,0.1,0,0.1,0,0.2v15.2c0,5.6-4.4,10.2-10,10.5v-14c0-4.1-3.4-7.5-7.5-7.5h-23.2
			c-2.4,0-4.3-1.9-4.3-4.2c0-3.4,1.3-6.6,3.7-9.1c2.4-2.4,5.6-3.7,9-3.7h19.6C344.3,255.5,350,261.1,350,268.1z M283.3,393.2
			l-40-45.9l26-22.6l40,45.9L283.3,393.2z M91.5,261.7h51v22.6h-51V261.7z M142.5,228v18.7h-51V228L142.5,228z M91.5,299.4h51V322
			h-51V299.4z M171.5,410v-50.5c0-4.1-3.4-7.5-7.5-7.5h-36.1c-4.1,0-7.5,3.4-7.5,7.5s3.4,7.5,7.5,7.5h28.6v43h-65v-43h4.7
			c4.1,0,7.5-3.4,7.5-7.5s-3.4-7.5-7.5-7.5h-4.7v-15h95v73H171.5z M305,394.2l16.5-14.4c2.4-2.1,3.8-4.9,4-8.1
			c0.2-3.1-0.8-6.2-2.9-8.5l-14-16c4.1-6.2,11.1-10.1,18.8-10.1c12.4,0,22.5,10.1,22.5,22.5V410h-45V394.2z"/>
	</g>
</g>
</svg>
