<?xml version="1.0" encoding="utf-8"?>
<!-- Generator: Adobe Illustrator 24.1.1, SVG Export Plug-In . SVG Version: 6.00 Build 0)  -->
<svg version="1.1" id="Capa_1" xmlns="http://www.w3.org/2000/svg" xmlns:xlink="http://www.w3.org/1999/xlink" x="0px" y="0px"
	 viewBox="0 0 512 512" style="enable-background:new 0 0 512 512;" xml:space="preserve">
<style type="text/css">
	.st0{fill:#F4F5F9;}
	.st1{fill:#A468D8;}
	.st2{fill:#6C2599;}
	.st3{fill:#DBC4F0;}
	.st4{fill:#CFD5E3;}
	.st5{fill:#94A3C1;}
	.st6{fill:#FFFFFF;}
	.st7{fill:#D5E5FF;}
	.st8{fill:#81B2FF;}
	.st9{fill:#F6F9FD;}
</style>
<path class="st0" d="M392,0H120C53.7,0,0,53.7,0,120v272c0,66.3,53.7,120,120,120h272c66.3,0,120-53.7,120-120V120
	C512,53.7,458.3,0,392,0z"/>
<path class="st1" d="M120,40c-44.2,0-80,35.8-80,80v192l160,160h192c44.2,0,80-35.8,80-80V120c0-44.2-35.8-80-80-80H120z"/>
<path class="st2" d="M353,196.3l-123-71c-6.3-3.6-12.9-5.3-19.4-5.3c-20.3,0-39,16.3-39,39v142c0,22.7,18.7,39,39,39
	c6.5,0,13.1-1.7,19.4-5.3l123-71C378.9,248.7,378.9,211.3,353,196.3z M343,246.4l-123,71c-3,1.7-6.2,2.6-9.4,2.6
	c-9.1,0-19-7.3-19-19V159c0-11.7,9.9-19,19-19c3.3,0,6.4,0.9,9.4,2.6l123,71c8.6,4.9,9.5,13.1,9.5,16.4S351.5,241.5,343,246.4z"/>
<path class="st3" d="M40,312h80c44.1,0,80,35.9,80,80v80L40,312z"/>
<polygon class="st4" points="200,472 171.7,472 40,340.3 40,312 "/>
<path class="st5" d="M492,392c0,55.1-44.9,100-100,100H120c-55.1,0-100-44.9-100-100V120H0v272c0,66.3,53.7,120,120,120h272
	c66.3,0,120-53.7,120-120V120h-20V392z"/>
<path class="st6" d="M392,20H120C64.9,20,20,64.9,20,120h20c0-44.1,35.9-80,80-80h272c44.1,0,80,35.9,80,80h20
	C492,64.9,447.1,20,392,20z"/>
<path class="st7" d="M392,272c-59.5,0-108.8,43.3-118.3,100c-0.6,0-1.1,0-1.7,0c-38.7,0-70,31.3-70,70s31.3,70,70,70
	c20,0,94.2,0,120,0c66.3,0,120-53.7,120-120S458.3,272,392,272z"/>
<g>
	<polygon class="st8" points="372,392 372,455.6 412,455.6 412,392 451.1,392 420.3,361.1 392,332.9 363.7,361.1 332.9,392 	"/>
	<path class="st8" d="M392,492H272c-27.6,0-50-22.4-50-50h-20c0,38.7,31.3,70,70,70c20,0,94.2,0,120,0c66.3,0,120-53.7,120-120h-20
		C492,447.1,447.1,492,392,492z"/>
</g>
<g>
	<path class="st9" d="M392,292c-55.1,0-100,44.9-100,100h20c0-44.1,35.9-80,80-80s80,35.9,80,80h20C492,336.9,447.1,292,392,292z"/>
	<path class="st9" d="M272,392c-27.6,0-50,22.4-50,50h20c0-16.5,13.5-30,30-30s30,13.5,30,30h20C322,414.4,299.6,392,272,392z"/>
</g>
</svg>
