<?xml version="1.0" encoding="utf-8"?>
<!-- Generator: Adobe Illustrator 24.1.1, SVG Export Plug-In . SVG Version: 6.00 Build 0)  -->
<svg version="1.1" id="Capa_1" xmlns="http://www.w3.org/2000/svg" xmlns:xlink="http://www.w3.org/1999/xlink" x="0px" y="0px"
	 viewBox="0 0 512 512" style="enable-background:new 0 0 512 512;" xml:space="preserve">
<style type="text/css">
	.st0{fill:#E4EEF0;}
	.st1{fill:#ADB9C3;}
	.st2{fill:#082C56;}
	.st3{fill:#E10D00;}
	.st4{fill:#EEBE00;}
	.st5{fill:#3755C7;}
	.st6{fill:#F80400;}
	.st7{fill:#00B789;}
	.st8{fill:#006699;}
</style>
<path class="st0" d="M373.2,503.5H138.8c-15.4,0-27.9-12.5-27.9-27.9v-40.4h290.1v40.4C401.1,491,388.6,503.5,373.2,503.5z"/>
<g>
	<path class="st1" d="M281.6,477.9h-51.2c-4.7,0-8.5-3.8-8.5-8.5s3.8-8.5,8.5-8.5h51.2c4.7,0,8.5,3.8,8.5,8.5
		S286.3,477.9,281.6,477.9z"/>
	<path class="st1" d="M358.4,477.9h-34.1c-4.7,0-8.5-3.8-8.5-8.5s3.8-8.5,8.5-8.5h34.1c4.7,0,8.5,3.8,8.5,8.5
		C366.9,474,363.1,477.9,358.4,477.9z"/>
	<path class="st1" d="M187.7,477.9h-34.1c-4.7,0-8.5-3.8-8.5-8.5s3.8-8.5,8.5-8.5h34.1c4.7,0,8.5,3.8,8.5,8.5
		C196.3,474,192.4,477.9,187.7,477.9z"/>
</g>
<path class="st0" d="M138.8,8.5h234.4c15.4,0,27.9,12.5,27.9,27.9v40.4H110.9V36.4C110.9,21,123.4,8.5,138.8,8.5z"/>
<path class="st1" d="M298.7,51.2h-85.3c-4.7,0-8.5-3.8-8.5-8.5s3.8-8.5,8.5-8.5h85.3c4.7,0,8.5,3.8,8.5,8.5S303.4,51.2,298.7,51.2z"
	/>
<rect x="110.9" y="76.8" class="st2" width="290.1" height="358.4"/>
<rect x="273.1" y="110.9" class="st3" width="93.9" height="128"/>
<rect x="273.1" y="273.1" class="st4" width="93.9" height="128"/>
<rect x="145.1" y="110.9" class="st5" width="93.9" height="59.7"/>
<rect x="145.1" y="341.3" class="st6" width="93.9" height="59.7"/>
<rect x="145.1" y="204.8" class="st7" width="93.9" height="102.4"/>
<g>
	<path class="st8" d="M373.2,512H138.8c-20.1,0-36.4-16.3-36.4-36.4v-40.4c0-4.7,3.8-8.5,8.5-8.5h290.1c4.7,0,8.5,3.8,8.5,8.5v40.4
		C409.6,495.7,393.3,512,373.2,512z M119.5,443.7v31.9c0,10.7,8.7,19.3,19.3,19.3h234.4c10.7,0,19.3-8.7,19.3-19.3v-31.9H119.5z"/>
	<path class="st8" d="M281.6,477.9h-51.2c-4.7,0-8.5-3.8-8.5-8.5s3.8-8.5,8.5-8.5h51.2c4.7,0,8.5,3.8,8.5,8.5
		C290.1,474.1,286.3,477.9,281.6,477.9z"/>
	<path class="st8" d="M358.4,477.9h-34.1c-4.7,0-8.5-3.8-8.5-8.5s3.8-8.5,8.5-8.5h34.1c4.7,0,8.5,3.8,8.5,8.5
		C366.9,474.1,363.1,477.9,358.4,477.9z"/>
	<path class="st8" d="M187.7,477.9h-34.1c-4.7,0-8.5-3.8-8.5-8.5s3.8-8.5,8.5-8.5h34.1c4.7,0,8.5,3.8,8.5,8.5
		C196.3,474.1,192.4,477.9,187.7,477.9z"/>
	<path class="st8" d="M401.1,85.3H110.9c-4.7,0-8.5-3.8-8.5-8.5V36.4c0-20.1,16.3-36.4,36.4-36.4h234.4c20.1,0,36.4,16.3,36.4,36.4
		v40.4C409.6,81.5,405.8,85.3,401.1,85.3z M119.5,68.3h273.1V36.4c0-10.7-8.7-19.3-19.3-19.3H138.8c-10.7,0-19.3,8.7-19.3,19.3
		L119.5,68.3L119.5,68.3z"/>
	<path class="st8" d="M298.7,51.2h-85.3c-4.7,0-8.5-3.8-8.5-8.5s3.8-8.5,8.5-8.5h85.3c4.7,0,8.5,3.8,8.5,8.5S303.4,51.2,298.7,51.2z
		"/>
	<path class="st8" d="M401.1,443.7H110.9c-4.7,0-8.5-3.8-8.5-8.5V76.8c0-4.7,3.8-8.5,8.5-8.5h290.1c4.7,0,8.5,3.8,8.5,8.5v358.4
		C409.6,439.9,405.8,443.7,401.1,443.7z M119.5,426.7h273.1V85.3H119.5V426.7z"/>
	<path class="st8" d="M366.9,247.5h-93.9c-4.7,0-8.5-3.8-8.5-8.5v-128c0-4.7,3.8-8.5,8.5-8.5h93.9c4.7,0,8.5,3.8,8.5,8.5v128
		C375.5,243.6,371.7,247.5,366.9,247.5z M281.6,230.4h76.8V119.5h-76.8L281.6,230.4L281.6,230.4z"/>
	<path class="st8" d="M366.9,409.6h-93.9c-4.7,0-8.5-3.8-8.5-8.5v-128c0-4.7,3.8-8.5,8.5-8.5h93.9c4.7,0,8.5,3.8,8.5,8.5v128
		C375.5,405.8,371.7,409.6,366.9,409.6z M281.6,392.5h76.8V281.6h-76.8L281.6,392.5L281.6,392.5z"/>
	<path class="st8" d="M238.9,179.2h-93.9c-4.7,0-8.5-3.8-8.5-8.5v-59.7c0-4.7,3.8-8.5,8.5-8.5h93.9c4.7,0,8.5,3.8,8.5,8.5v59.7
		C247.5,175.4,243.6,179.2,238.9,179.2z M153.6,162.1h76.8v-42.7h-76.8V162.1z"/>
	<path class="st8" d="M238.9,409.6h-93.9c-4.7,0-8.5-3.8-8.5-8.5v-59.7c0-4.7,3.8-8.5,8.5-8.5h93.9c4.7,0,8.5,3.8,8.5,8.5v59.7
		C247.5,405.8,243.6,409.6,238.9,409.6z M153.6,392.5h76.8v-42.7h-76.8V392.5z"/>
	<path class="st8" d="M238.9,315.7h-93.9c-4.7,0-8.5-3.8-8.5-8.5V204.8c0-4.7,3.8-8.5,8.5-8.5h93.9c4.7,0,8.5,3.8,8.5,8.5v102.4
		C247.5,311.9,243.6,315.7,238.9,315.7z M153.6,298.7h76.8v-85.3h-76.8V298.7z"/>
</g>
</svg>
