<?xml version="1.0" encoding="utf-8"?>
<!-- Generator: Adobe Illustrator 24.1.1, SVG Export Plug-In . SVG Version: 6.00 Build 0)  -->
<svg version="1.1" id="Capa_1" xmlns="http://www.w3.org/2000/svg" xmlns:xlink="http://www.w3.org/1999/xlink" x="0px" y="0px"
	 viewBox="0 0 512 512" style="enable-background:new 0 0 512 512;" xml:space="preserve">
<style type="text/css">
	.st0{fill:#0F60CF;}
	.st1{fill:#CAE8F9;}
	.st2{fill:#0A4EAF;}
	.st3{fill:#B7E0F6;}
	.st4{fill:#FCBF29;}
	.st5{fill:#32D736;}
	.st6{fill:#FD4E26;}
	.st7{fill:#4DBBEB;}
	.st8{fill:#FE9923;}
	.st9{fill:#FEA832;}
	.st10{fill:#FEDB41;}
</style>
<path class="st0" d="M392,106v361c0,24.9-20.1,45-45,45H45c-24.9,0-45-20.1-45-45V106c0-24.9,20.1-46,45-46h302
	C371.9,60,392,81.1,392,106z"/>
<path class="st1" d="M362,106v361c0,8.4-6.6,15-15,15H45c-8.4,0-15-6.6-15-15V106c0-8.4,6.6-15,15-15h302C355.4,91,362,97.6,362,106
	z"/>
<path class="st2" d="M392,106v361c0,24.9-20.1,45-45,45H196V60h151C371.9,60,392,81.1,392,106z"/>
<path class="st3" d="M362,106v361c0,8.4-6.6,15-15,15H196V91h151C355.4,91,362,97.6,362,106z"/>
<path class="st4" d="M287,30h-48.7c-6-17.4-22.8-30-42.3-30s-37.3,12.6-43.3,30H105c-8.4,0-15,6.6-15,15v31c0,24.9,20.1,45,45,45
	h121c24.9,0,46-20.1,46-45V45C302,36.6,295.4,30,287,30z"/>
<g>
	<path class="st5" d="M94.4,341.6l-30-30c-5.9-5.9-5.9-15.4,0-21.2s15.4-5.9,21.2,0l19.4,19.4l49.4-49.4c5.9-5.9,15.4-5.9,21.2,0
		c5.9,5.9,5.9,15.4,0,21.2l-60,60C109.7,347.5,100.3,347.5,94.4,341.6z"/>
	<path class="st5" d="M94.4,446.6l-30-30c-5.9-5.9-5.9-15.4,0-21.2s15.4-5.9,21.2,0l19.4,19.4l49.4-49.4c5.9-5.9,15.4-5.9,21.2,0
		s5.9,15.4,0,21.2l-60,60C108.4,453.8,101.6,453.8,94.4,446.6z"/>
</g>
<path class="st6" d="M126.2,196l19.4-19.4c5.9-5.9,5.9-15.4,0-21.2s-15.4-5.9-21.2,0L105,174.8l-19.4-19.4c-5.9-5.9-15.4-5.9-21.2,0
	s-5.9,15.4,0,21.2L83.8,196l-19.4,19.4c-5.9,5.9-5.9,15.4,0,21.2c5.9,5.9,15.4,5.9,21.2,0l19.4-19.4l19.4,19.4
	c5.9,5.9,15.4,5.9,21.2,0c5.9-5.9,5.9-15.4,0-21.2L126.2,196z"/>
<g>
	<path class="st7" d="M317,211h-91c-8.3,0-15-6.7-15-15s6.7-15,15-15h91c8.3,0,15,6.7,15,15S325.3,211,317,211z"/>
	<path class="st7" d="M317,316h-91c-8.3,0-15-6.7-15-15s6.7-15,15-15h91c8.3,0,15,6.7,15,15S325.3,316,317,316z"/>
	<path class="st7" d="M317,421h-91c-8.3,0-15-6.7-15-15s6.7-15,15-15h91c8.3,0,15,6.7,15,15S325.3,421,317,421z"/>
</g>
<path class="st8" d="M302,45v31c0,24.9-21.1,45-46,45h-60V0c19.5,0,36.3,12.6,42.3,30H287C295.4,30,302,36.6,302,45z"/>
<path class="st0" d="M512,136v45l-30,30h-30l-30-30v-45c0-24.9,20.1-45,45-45S512,111.1,512,136z"/>
<path class="st2" d="M512,136v45l-30,30h-15V91C491.9,91,512,111.1,512,136z"/>
<polygon class="st9" points="512,181 512,376 497,391 437,391 422,376 422,181 "/>
<polygon class="st8" points="512,181 512,376 497,391 467,391 467,181 "/>
<path class="st10" d="M507.5,365.5c-11.1-11.1-25.8-16.8-40.5-16.8s-29.4,5.7-40.5,16.8c-4.2,3.9-5.4,9.9-3.6,15.3l30,91
	c1.8,6,7.5,10.2,14.1,10.2s12.3-4.2,14.1-10.2l30-91C512.9,375.4,511.7,369.4,507.5,365.5z"/>
<path class="st4" d="M507.5,365.5c4.2,3.9,5.4,9.9,3.6,15.3l-30,91c-1.8,6-7.5,10.2-14.1,10.2V348.7
	C481.7,348.7,496.4,354.4,507.5,365.5z"/>
</svg>
