<?xml version="1.0" encoding="utf-8"?>
<!-- Generator: Adobe Illustrator 24.1.1, SVG Export Plug-In . SVG Version: 6.00 Build 0)  -->
<svg version="1.1" id="OBJECTS" xmlns="http://www.w3.org/2000/svg" xmlns:xlink="http://www.w3.org/1999/xlink" x="0px" y="0px"
	 viewBox="0 0 750 500" style="enable-background:new 0 0 750 500;" xml:space="preserve">
<style type="text/css">
	.st0{fill:#81D4FA;}
	.st1{opacity:0.15;fill:#81D4FA;}
	.st2{opacity:0.25;fill:#81D4FA;}
	.st3{fill:#9FE6FF;}
	.st4{fill:#F7AC40;}
	.st5{fill:#91399D;}
	.st6{fill:#404041;}
	.st7{opacity:0.15;fill:#231F20;}
	.st8{opacity:0.25;fill:#FFFFFF;}
	.st9{fill:#37B04A;}
	.st10{fill:#754C28;}
	.st11{fill:#603813;}
	.st12{fill:#A3A5A8;}
	.st13{fill:#353535;}
	.st14{fill:#CDCFD0;}
	.st15{fill:#875D3B;}
	.st16{fill:#5A4A42;}
	.st17{fill:#716558;}
	.st18{fill:#F9B59D;}
	.st19{fill:#978179;}
	.st20{fill:#231F20;}
	.st21{fill:#F38F1E;}
	.st22{fill:#EA967D;}
	.st23{fill:#C44141;}
	.st24{fill:#FFFFFF;}
	.st25{fill:#AD2D2D;}
	.st26{fill:#ED5454;}
	.st27{fill:#EA3B3B;}
	.st28{fill:#E3E4E5;}
	.st29{opacity:0.1;fill:#231F20;}
	.st30{fill:#B8BABC;}
	.st31{opacity:0.25;fill:#231F20;}
	.st32{fill:#8E2828;}
	.st33{fill:#B75E06;}
	.st34{fill:#943363;}
	.st35{fill:#EA87C4;}
	.st36{fill:#BE5C9E;}
	.st37{opacity:0.25;fill:#981F11;}
	.st38{opacity:0.1;fill:#81D4FA;}
	.st39{fill:none;}
</style>
<g>
	<g>
		<path class="st0" d="M424.4,228.2c-1.4,1.2-6.3,2.6-7.8,3c-0.3,0.1-0.5,0-0.8-0.1c-0.6-0.3-1.1-0.8-1.5-1.2
			c-1.3-1.5-1.4-3.3-1.3-4.1c0-0.3,0.2-0.6,0.5-0.8c3.1-2.1,6-3.2,6.1-3.2c0,0,0,0,0,0c0,0,2.7,2.1,4.1,4
			C424.5,226.7,425,227.7,424.4,228.2z"/>
		<path class="st0" d="M480.4,196.6l-6.7,8c0,0-34.5,18.5-49.2,23.5c-0.6,0.2-1.2,0.4-1.7,0.5c0,0-1.4-0.1-2.6-1.2
			c-0.3-0.3-0.7-0.8-0.9-1.3c-1-2.1,0-4.3,0-4.3s0.2-0.1,0.5-0.2c0,0,0,0,0,0c3.9-2,30.9-16,49.9-24.5l10.5-1.2
			c0.2,0,0.4,0.1,0.5,0.4C480.5,196.4,480.4,196.5,480.4,196.6z"/>
		<path class="st0" d="M480.4,196.6l-1.5,1.8l-5.3,6.3c-2.4-0.1-1-1-1.5-1.3c-0.5-0.3-0.8,0.1-1.7-0.6c-0.8-0.7,0.4-1.6,0-2
			c-0.4-0.4-1.2-0.7-1.2-1.6c-0.1-1,0.3-2,0.3-2l7.9-0.9l2.6-0.3C480.4,195.9,480.6,196.3,480.4,196.6z"/>
		<path class="st0" d="M480.4,196.6l-1.5,1.8c-0.5-0.2-1-0.4-1.3-0.8c-0.3-0.4-0.3-0.9-0.3-1.4l2.6-0.3
			C480.4,195.9,480.6,196.3,480.4,196.6z"/>
		<path class="st1" d="M480.4,196.6l-6.7,8c0,0-34.5,18.5-49.2,23.5c-1.4,1.2-6.3,2.6-7.8,3c-0.3,0.1-0.5,0-0.8-0.1
			c-0.6-0.3-1.1-0.8-1.5-1.2l0,0l5.7-2.4h0l3.7-1.8l46.7-22.9l10-6.5C480.5,196.4,480.4,196.5,480.4,196.6z"/>
		<path class="st2" d="M413.7,225.9c1.1-0.7,2.2-1.4,3.3-2.1l0.8-0.5l0.4-0.3l0.2-0.1l0.1-0.1l0.1-0.1l1.7-0.9
			c0.6-0.3,1.1-0.6,1.7-0.9c0.6-0.3,1.2-0.6,1.7-0.8l3.5-1.7l13.9-6.8l13.9-6.8l6.9-3.4l3.5-1.7c1.2-0.6,2.3-1.1,3.5-1.7l0,0l0.1,0
			c0.2,0,0.4-0.1,0.6-0.1c0.2,0,0.4-0.1,0.6-0.1l1.2-0.2l2.5-0.4l2.5-0.4l2.5-0.4l-2.4,0.6l-2.4,0.6l-2.4,0.6l-1.2,0.3
			c-0.2,0.1-0.4,0.1-0.6,0.1c-0.2,0-0.4,0.1-0.6,0.1l0.1,0c-1.2,0.6-2.3,1.1-3.5,1.7l-3.5,1.7l-6.9,3.4l-13.9,6.8l-13.9,6.8
			l-3.5,1.7c-0.6,0.3-1.2,0.6-1.7,0.9c-0.6,0.3-1.2,0.5-1.8,0.8l-1.8,0.8l-0.1,0l0,0l0,0c0,0,0,0,0,0l-0.1,0.1l-0.2,0.1l-0.4,0.2
			l-0.9,0.4C416,224.8,414.9,225.4,413.7,225.9z"/>
	</g>
	<g>
		<path class="st0" d="M46.6,362.1c-1,0.9-4.6,1.9-5.6,2.2c-0.2,0-0.4,0-0.6-0.1c-0.5-0.3-0.8-0.5-1.1-0.9c-0.9-1.1-1-2.4-1-3
			c0-0.2,0.1-0.5,0.3-0.6c2.2-1.5,4.4-2.3,4.4-2.4c0,0,0,0,0,0c0,0,1.9,1.6,3,2.9C46.7,361,47,361.7,46.6,362.1z"/>
		<path class="st0" d="M87.2,339.2l-4.9,5.8c0,0-25.1,13.4-35.8,17.1c-0.4,0.2-0.9,0.3-1.2,0.4c0,0-1,0-1.9-0.9
			c-0.3-0.2-0.5-0.6-0.7-1c-0.7-1.5,0-3.1,0-3.1s0.1-0.1,0.3-0.2c0,0,0,0,0,0c2.8-1.5,22.4-11.6,36.2-17.8l7.6-0.9
			c0.2,0,0.3,0.1,0.3,0.3C87.3,339,87.3,339.1,87.2,339.2z"/>
		<path class="st0" d="M87.2,339.2l-1.1,1.3l-3.8,4.6c-1.7,0-0.7-0.8-1.1-0.9c-0.4-0.2-0.6,0-1.2-0.4c-0.6-0.5,0.3-1.1,0-1.5
			s-0.9-0.5-0.9-1.2c0-0.7,0.2-1.5,0.2-1.5l5.7-0.7l1.9-0.2C87.2,338.6,87.4,339,87.2,339.2z"/>
		<path class="st0" d="M87.2,339.2l-1.1,1.3c-0.4-0.1-0.7-0.3-0.9-0.6c-0.2-0.3-0.2-0.7-0.2-1l1.9-0.2
			C87.2,338.6,87.4,339,87.2,339.2z"/>
		<path class="st1" d="M87.2,339.2l-4.9,5.8c0,0-25.1,13.4-35.8,17.1c-1,0.9-4.6,1.9-5.6,2.2c-0.2,0-0.4,0-0.6-0.1
			c-0.5-0.3-0.8-0.5-1.1-0.9l0,0l4.1-1.7h0l2.7-1.3L80,343.6l7.3-4.7C87.3,339,87.3,339.1,87.2,339.2z"/>
		<path class="st2" d="M38.8,360.5c0.8-0.5,1.6-1,2.4-1.5l0.6-0.4l0.3-0.2l0.1-0.1l0.1,0l0.1,0l1.2-0.7c0.4-0.2,0.8-0.5,1.2-0.7
			c0.4-0.2,0.8-0.4,1.3-0.6l2.5-1.2l10.1-5l10.1-5l5-2.5l2.5-1.2c0.8-0.4,1.7-0.8,2.5-1.2l0,0l0,0c0.1,0,0.3-0.1,0.4-0.1
			c0.1,0,0.3-0.1,0.4-0.1l0.9-0.1l1.8-0.3l1.8-0.3l1.8-0.3l-1.7,0.5l-1.7,0.5l-1.8,0.5l-0.9,0.2c-0.1,0-0.3,0.1-0.4,0.1
			c-0.1,0-0.3,0.1-0.4,0.1l0.1,0c-0.8,0.4-1.7,0.8-2.5,1.2l-2.5,1.2l-5,2.5l-10.1,5l-10.1,5l-2.5,1.2c-0.4,0.2-0.8,0.4-1.3,0.6
			c-0.4,0.2-0.9,0.4-1.3,0.6l-1.3,0.6l0,0l0,0l0,0c0,0,0,0,0,0l-0.1,0l-0.2,0.1L42,359l-0.6,0.3C40.5,359.7,39.6,360.1,38.8,360.5z"
			/>
	</g>
	<g>
		<path class="st0" d="M624.1,296c6.2-14.1-0.2-30.5-14.3-36.6c-0.4-0.2-0.7-0.3-1.1-0.4c1.7-2,3.1-4.3,4.2-6.8
			c6.2-14.1-0.2-30.5-14.3-36.6c-14.1-6.2-30.5,0.2-36.6,14.3c-2.2,5.1-2.8,10.5-2,15.6c-0.9-0.5-1.8-1-2.7-1.4
			c-14.1-6.2-30.5,0.2-36.6,14.3c-4.4,10-2.4,21.1,4.1,28.9c-1.9,2.1-3.5,4.6-4.7,7.3c-1.3,3.1-2.1,6.2-2.3,9.4
			c-2.9-4.6-7.1-8.4-12.4-10.7c-14.1-6.2-30.5,0.2-36.6,14.3c-6.2,14.1,0.2,30.5,14.3,36.6c14.1,6.2,30.5-0.2,36.6-14.3
			c1.3-3.1,2.1-6.2,2.3-9.4c2.9,4.6,7.1,8.4,12.4,10.7c10.3,4.5,21.9,2.3,29.8-4.8c1.1,0.7,2.3,1.3,3.6,1.9
			c14.1,6.2,30.5-0.2,36.6-14.3c0.3-0.7,0.6-1.5,0.8-2.2C613.4,309.8,620.5,304.2,624.1,296z M577.4,266.9c-1.3,1.6-2.5,3.4-3.5,5.3
			c0.2-2.4,0.1-4.8-0.2-7.1c0.9,0.5,1.8,1,2.7,1.4C576.7,266.6,577.1,266.7,577.4,266.9z"/>
		<path class="st3" d="M586.6,249.6c0-14.4-11.7-26.1-26.1-26.1c-0.4,0-0.7,0-1.1,0c0.7-2.4,1.1-4.9,1.1-7.5
			c0-14.4-11.7-26.1-26.1-26.1c-14.4,0-26.1,11.7-26.1,26.1c0,5.2,1.5,10.1,4.2,14.2c-0.9-0.1-1.9-0.2-2.8-0.2
			c-14.4,0-26.1,11.7-26.1,26.1c0,10.2,5.9,19.1,14.4,23.4c-0.8,2.6-1.3,5.3-1.3,8.1c0,3.1,0.6,6.2,1.6,9c-4.2-2.9-9.3-4.5-14.7-4.5
			c-14.4,0-26.1,11.7-26.1,26.1c0,14.4,11.7,26.1,26.1,26.1c14.4,0,26.1-11.7,26.1-26.1c0-3.1-0.6-6.2-1.6-9
			c4.2,2.9,9.3,4.5,14.7,4.5c10.6,0,19.7-6.3,23.8-15.4c1.2,0.2,2.5,0.3,3.8,0.3c14.4,0,26.1-11.7,26.1-26.1c0-0.7,0-1.5-0.1-2.2
			C582.6,265.6,586.6,258.1,586.6,249.6z M535.4,242.2c-0.6,1.9-0.9,3.8-1,5.9c-0.7-2.1-1.7-4.2-2.9-6c0.9,0.1,1.9,0.2,2.8,0.2
			C534.7,242.2,535.1,242.2,535.4,242.2z"/>
	</g>
	<g>
		<path class="st0" d="M510.2,315.1c6.2-14.1-0.2-30.5-14.3-36.6c-0.4-0.2-0.7-0.3-1.1-0.4c1.7-2,3.1-4.3,4.2-6.8
			c6.2-14.1-0.2-30.5-14.3-36.6c-14.1-6.2-30.5,0.2-36.6,14.3c-2.2,5.1-2.8,10.5-2,15.6c-0.9-0.5-1.8-1-2.7-1.4
			c-14.1-6.2-30.5,0.2-36.6,14.3c-4.4,10-2.4,21.1,4.1,28.9c-1.9,2.1-3.5,4.6-4.7,7.3c-1.3,3.1-2.1,6.2-2.3,9.4
			c-2.9-4.6-7.1-8.4-12.4-10.7c-14.1-6.2-30.5,0.2-36.6,14.3c-6.2,14.1,0.2,30.5,14.3,36.6c14.1,6.2,30.5-0.2,36.6-14.3
			c1.3-3.1,2.1-6.2,2.3-9.4c2.9,4.6,7.1,8.4,12.4,10.7c10.3,4.5,21.9,2.3,29.8-4.8c1.1,0.7,2.3,1.3,3.6,1.9
			c14.1,6.2,30.5-0.2,36.6-14.3c0.3-0.7,0.6-1.5,0.8-2.2C499.4,328.9,506.6,323.3,510.2,315.1z M463.5,285.9
			c-1.3,1.6-2.5,3.4-3.5,5.3c0.2-2.4,0.1-4.8-0.2-7.1c0.9,0.5,1.8,1,2.7,1.4C462.7,285.7,463.1,285.8,463.5,285.9z"/>
		<path class="st3" d="M472.6,268.7c0-14.4-11.7-26.1-26.1-26.1c-0.4,0-0.7,0-1.1,0c0.7-2.4,1.1-4.9,1.1-7.5
			c0-14.4-11.7-26.1-26.1-26.1c-14.4,0-26.1,11.7-26.1,26.1c0,5.2,1.5,10.1,4.2,14.2c-0.9-0.1-1.9-0.2-2.8-0.2
			c-14.4,0-26.1,11.7-26.1,26.1c0,10.2,5.9,19.1,14.4,23.4c-0.8,2.6-1.3,5.3-1.3,8.1c0,3.1,0.6,6.2,1.6,9c-4.2-2.9-9.3-4.5-14.7-4.5
			c-14.4,0-26.1,11.7-26.1,26.1c0,14.4,11.7,26.1,26.1,26.1c14.4,0,26.1-11.7,26.1-26.1c0-3.1-0.6-6.2-1.6-9
			c4.2,2.9,9.3,4.5,14.7,4.5c10.6,0,19.7-6.3,23.8-15.4c1.2,0.2,2.5,0.3,3.8,0.3c14.4,0,26.1-11.7,26.1-26.1c0-0.7,0-1.5-0.1-2.2
			C468.6,284.7,472.6,277.2,472.6,268.7z M421.5,261.2c-0.6,1.9-0.9,3.8-1,5.9c-0.7-2.1-1.7-4.2-2.9-6c0.9,0.1,1.9,0.2,2.8,0.2
			C420.7,261.3,421.1,261.3,421.5,261.2z"/>
	</g>
	<g>
		<path class="st0" d="M365.1,179c-1.5,0-3,0.3-4.3,0.9c-3.5-7.4-11-12.5-19.7-12.5c-6.8,0-12.9,3.1-16.8,8
			c-3.9-5.7-10.5-9.4-17.9-9.4c-12,0-21.8,9.7-21.8,21.8c0,1.4,0.1,2.8,0.4,4.1c-10.3,1.7-18.2,10.6-18.2,21.5
			c0,3.5,0.9,6.9,2.4,9.8c-4.9,1.1-8.6,5.4-8.6,10.6c0,6,4.9,10.9,10.9,10.9c4,0,7.5-2.1,9.3-5.3c3.8,3.1,8.6,5,13.8,5
			c7.2,0,13.6-3.5,17.6-9c0.3,0,0.7,0,1,0c7.6,0,14.3-3.9,18.2-9.8c2.1,0.7,4.4,1.1,6.7,1.1c12,0,21.8-9.7,21.8-21.8
			c0-1.4-0.1-2.7-0.4-4.1c0.2-0.4,0.5-0.8,0.7-1.1c1.5,0.8,3.1,1.2,4.9,1.2c6,0,10.9-4.9,10.9-10.9C376,183.9,371.1,179,365.1,179z"
			/>
		<path class="st3" d="M345.8,175.8c-1.1,0-2.1,0.2-3,0.6c-2.4-5.2-7.6-8.7-13.7-8.7c-4.7,0-8.9,2.2-11.7,5.6
			c-2.7-3.9-7.3-6.5-12.4-6.5c-8.4,0-15.1,6.8-15.1,15.1c0,1,0.1,1.9,0.3,2.8c-7.2,1.2-12.7,7.4-12.7,14.9c0,2.5,0.6,4.8,1.6,6.8
			c-3.4,0.7-6,3.8-6,7.4c0,4.2,3.4,7.6,7.6,7.6c2.8,0,5.2-1.5,6.5-3.7c2.6,2.2,6,3.5,9.6,3.5c5,0,9.5-2.5,12.2-6.2
			c0.2,0,0.5,0,0.7,0c5.3,0,10-2.7,12.7-6.8c1.5,0.5,3,0.7,4.7,0.7c8.4,0,15.1-6.8,15.1-15.1c0-1-0.1-1.9-0.3-2.8
			c0.2-0.3,0.3-0.5,0.5-0.8c1,0.5,2.2,0.8,3.4,0.8c4.2,0,7.6-3.4,7.6-7.6C353.4,179.1,350,175.8,345.8,175.8z"/>
	</g>
	<g>
		<path class="st0" d="M352.2,325.9c-1.5-0.2-3-0.1-4.4,0.3c-2.4-7.8-9.2-13.9-17.8-15.1c-6.7-0.9-13.2,1.3-17.8,5.6
			c-3.1-6.1-9.1-10.7-16.4-11.7c-11.9-1.6-22.9,6.7-24.5,18.6c-0.2,1.4-0.2,2.8-0.2,4.1c-10.5,0.3-19.5,8.1-21,18.8
			c-0.5,3.5-0.1,6.9,1,10.1c-5,0.4-9.2,4.2-9.9,9.4c-0.8,6,3.4,11.4,9.3,12.2c3.9,0.5,7.7-1.1,10-4c3.3,3.6,7.8,6.1,13,6.8
			c7.2,1,14-1.7,18.6-6.5c0.3,0.1,0.7,0.1,1,0.2c7.5,1,14.7-1.9,19.4-7.3c2,1,4.2,1.6,6.5,2c11.9,1.6,22.9-6.7,24.5-18.6
			c0.2-1.4,0.2-2.7,0.2-4.1c0.3-0.3,0.6-0.7,0.8-1c1.4,0.9,3,1.6,4.7,1.8c6,0.8,11.4-3.4,12.2-9.3
			C362.3,332.2,358.1,326.7,352.2,325.9z"/>
		<path class="st3" d="M333.5,320.1c-1-0.1-2.1-0.1-3,0.2c-1.7-5.4-6.4-9.7-12.4-10.5c-4.7-0.6-9.1,0.9-12.4,3.9
			c-2.2-4.3-6.3-7.4-11.4-8.1c-8.3-1.1-15.9,4.7-17,12.9c-0.1,1-0.2,1.9-0.1,2.8c-7.3,0.2-13.6,5.6-14.6,13.1
			c-0.3,2.4-0.1,4.8,0.7,7c-3.5,0.3-6.4,2.9-6.9,6.5c-0.6,4.1,2.3,8,6.5,8.5c2.7,0.4,5.3-0.8,6.9-2.8c2.3,2.5,5.4,4.2,9.1,4.7
			c5,0.7,9.7-1.2,13-4.5c0.2,0,0.5,0.1,0.7,0.1c5.2,0.7,10.2-1.4,13.5-5.1c1.4,0.7,2.9,1.1,4.5,1.4c8.3,1.1,15.9-4.7,17-12.9
			c0.1-1,0.2-1.9,0.1-2.8c0.2-0.2,0.4-0.5,0.6-0.7c0.9,0.7,2.1,1.1,3.3,1.3c4.1,0.6,8-2.3,8.5-6.5
			C340.5,324.5,337.6,320.7,333.5,320.1z"/>
	</g>
	<g>
		<path class="st0" d="M441.8,71c0.6-0.6,1.2-1.1,1.9-1.4c-1.6-4.1-0.9-9,2.4-12.4c2.5-2.7,6-3.9,9.4-3.7c-0.8-3.7,0.2-7.6,3-10.5
			c4.5-4.7,11.9-5,16.7-0.5c0.6,0.5,1,1.1,1.5,1.7c4.5-3.5,11-3.2,15.3,0.8c1.4,1.3,2.4,2.9,3,4.6c2.2-1.5,5.3-1.4,7.4,0.6
			c2.4,2.2,2.5,6,0.2,8.3c-1.5,1.6-3.6,2.1-5.6,1.7c-0.2,2.6-1.2,5.2-3.2,7.3c-2.7,2.8-6.5,4.1-10.1,3.6c-0.1,0.1-0.2,0.3-0.4,0.4
			c-2.8,3-6.9,4.2-10.6,3.5c-0.5,1.1-1.2,2.1-2.1,3c-4.5,4.7-11.9,5-16.7,0.5c-0.5-0.5-1-1.1-1.5-1.7c-0.2,0-0.5-0.1-0.7-0.2
			c-0.3,0.9-0.7,1.7-1.4,2.4c-2.2,2.4-6,2.5-8.3,0.2C439.7,77.1,439.6,73.4,441.8,71z"/>
		<path class="st3" d="M447.8,62.2c0.4-0.4,0.9-0.7,1.3-0.9c-1.1-2.9-0.6-6.3,1.7-8.6c1.8-1.9,4.2-2.7,6.5-2.6
			c-0.5-2.5,0.1-5.3,2.1-7.3c3.1-3.3,8.3-3.4,11.6-0.3c0.4,0.4,0.7,0.8,1,1.2c3.1-2.4,7.6-2.2,10.6,0.6c1,0.9,1.7,2,2.1,3.2
			c1.6-1.1,3.7-1,5.1,0.4c1.6,1.6,1.7,4.1,0.2,5.8c-1,1.1-2.5,1.5-3.9,1.2c-0.1,1.8-0.9,3.6-2.2,5.1c-1.9,2-4.5,2.8-7,2.5
			c-0.1,0.1-0.2,0.2-0.3,0.3c-2,2.1-4.8,2.9-7.4,2.4c-0.4,0.8-0.8,1.5-1.4,2.1c-3.1,3.3-8.3,3.4-11.6,0.3c-0.4-0.4-0.7-0.7-1-1.2
			c-0.2,0-0.3-0.1-0.5-0.1c-0.2,0.6-0.5,1.2-0.9,1.7c-1.6,1.6-4.1,1.7-5.8,0.2S446.2,63.9,447.8,62.2z"/>
	</g>
	<g>
		<path class="st0" d="M667.5,193.6c5.5-12.6-0.2-27.2-12.8-32.7c-0.3-0.1-0.6-0.3-1-0.4c1.5-1.8,2.8-3.8,3.8-6.1
			c5.5-12.6-0.2-27.2-12.8-32.7c-12.6-5.5-27.2,0.2-32.7,12.8c-2,4.6-2.5,9.4-1.8,14c-0.8-0.4-1.6-0.9-2.4-1.2
			c-12.6-5.5-27.2,0.2-32.7,12.8c-3.9,8.9-2.2,18.8,3.6,25.8c-1.7,1.9-3.1,4.1-4.2,6.6c-1.2,2.7-1.9,5.6-2,8.4
			c-2.6-4.1-6.3-7.5-11.1-9.5c-12.6-5.5-27.2,0.2-32.7,12.8c-5.5,12.6,0.2,27.2,12.8,32.7c12.6,5.5,27.2-0.2,32.7-12.8
			c1.2-2.7,1.9-5.6,2-8.4c2.6,4.1,6.3,7.5,11.1,9.5c9.2,4,19.6,2,26.6-4.3c1,0.6,2.1,1.2,3.2,1.7c12.6,5.5,27.2-0.2,32.7-12.8
			c0.3-0.6,0.5-1.3,0.8-2C657.9,205.9,664.3,200.9,667.5,193.6z M625.8,167.6c-1.2,1.4-2.3,3-3.1,4.7c0.2-2.1,0.1-4.3-0.2-6.3
			c0.8,0.4,1.6,0.9,2.4,1.2C625.2,167.3,625.5,167.4,625.8,167.6z"/>
		<path class="st3" d="M634,152.2c0-12.9-10.4-23.3-23.3-23.3c-0.3,0-0.6,0-1,0c0.6-2.1,1-4.3,1-6.7c0-12.9-10.4-23.3-23.3-23.3
			c-12.9,0-23.3,10.4-23.3,23.3c0,4.7,1.4,9,3.8,12.7c-0.8-0.1-1.7-0.1-2.5-0.1c-12.9,0-23.3,10.4-23.3,23.3c0,9.1,5.2,17,12.9,20.8
			c-0.7,2.3-1.1,4.7-1.1,7.2c0,2.8,0.5,5.5,1.4,8c-3.7-2.5-8.3-4-13.1-4c-12.9,0-23.3,10.4-23.3,23.3c0,12.9,10.4,23.3,23.3,23.3
			c12.9,0,23.3-10.4,23.3-23.3c0-2.8-0.5-5.5-1.4-8c3.7,2.5,8.3,4,13.1,4c9.5,0,17.6-5.6,21.3-13.7c1.1,0.2,2.2,0.2,3.4,0.2
			c12.9,0,23.3-10.4,23.3-23.3c0-0.7,0-1.3-0.1-2C630.4,166.4,634,159.7,634,152.2z M588.3,145.5c-0.5,1.7-0.8,3.4-0.9,5.3
			c-0.6-1.9-1.5-3.7-2.6-5.4c0.8,0.1,1.7,0.1,2.5,0.1C587.7,145.5,588,145.5,588.3,145.5z"/>
	</g>
	<g>
		<path class="st4" d="M442.9,148.7c-3.1,2.8-14.7,6-18,6.9c-0.6,0.2-1.2,0.1-1.8-0.2c-1.5-0.8-2.6-1.7-3.5-2.8
			c-3-3.4-3.2-7.5-3.1-9.6c0-0.8,0.4-1.5,1.1-1.9c7.1-4.8,13.8-7.4,14.1-7.5c0,0,0,0,0,0c0,0,6.2,5,9.6,9.3
			C443.2,145.3,444.2,147.5,442.9,148.7z"/>
		<path class="st5" d="M572.2,75.7l-15.5,18.6c0,0-79.7,42.7-113.8,54.4c-1.4,0.5-2.7,0.9-3.9,1.3c0,0-3.3-0.1-6.1-2.8
			c-0.8-0.8-1.5-1.8-2.2-3c-2.3-4.8,0-9.9,0-9.9s0.4-0.2,1.1-0.6c0,0,0,0,0,0c9.1-4.7,71.4-36.9,115.3-56.7l24.3-2.8
			c0.6-0.1,1,0.3,1.1,0.8C572.5,75.2,572.4,75.5,572.2,75.7z"/>
		<path class="st4" d="M572.2,75.7l-3.4,4.1l-12.1,14.5c-5.5-0.2-2.4-2.4-3.6-3c-1.2-0.6-2,0.1-3.9-1.4c-2-1.5,0.9-3.6,0-4.6
			c-0.9-1-2.7-1.5-2.9-3.8c-0.1-2.3,0.8-4.6,0.8-4.6l18.2-2.1l6.1-0.7C572.2,74,572.8,75.1,572.2,75.7z"/>
		<path class="st6" d="M572.2,75.7l-3.4,4.1c-1.2-0.3-2.4-0.9-2.9-1.8c-0.7-1-0.7-2.2-0.6-3.2l6.1-0.7
			C572.2,74,572.8,75.1,572.2,75.7z"/>
		<path class="st7" d="M572.2,75.7l-15.5,18.6c0,0-79.7,42.7-113.8,54.4c-3.1,2.8-14.7,6-18,6.9c-0.6,0.2-1.2,0.1-1.8-0.2
			c-1.5-0.8-2.6-1.7-3.5-2.8l0,0l13.2-5.5h0l8.5-4.2l107.8-53l23.2-15C572.5,75.2,572.4,75.5,572.2,75.7z"/>
		<path class="st8" d="M418.1,143.6c2.5-1.6,5-3.2,7.6-4.8l1.9-1.2l1-0.6l0.5-0.3l0.2-0.1l0.3-0.2l3.9-2.2c1.3-0.7,2.6-1.5,4-2.1
			c1.4-0.6,2.7-1.3,4-2l8-3.9l32.1-15.8l32.1-15.8l16.1-7.9l8-4c2.7-1.3,5.4-2.6,8-4l0.1-0.1l0.1,0c0.5-0.1,0.9-0.2,1.4-0.3
			c0.5-0.1,0.9-0.2,1.4-0.2l2.8-0.5l5.7-0.9l5.7-0.9l5.7-0.9l-5.6,1.5l-5.6,1.5l-5.6,1.4l-2.8,0.7c-0.5,0.1-0.9,0.2-1.4,0.3
			c-0.5,0.1-0.9,0.2-1.4,0.3l0.2-0.1c-2.7,1.3-5.4,2.6-8,3.9l-8,3.9l-16.1,7.9l-32.1,15.8l-32.1,15.8l-8,3.9c-1.3,0.7-2.7,1.3-4,2
			c-1.3,0.7-2.7,1.2-4.1,1.8l-4.1,1.8l-0.1,0.1l-0.1,0l0,0c0,0-0.1,0,0,0l-0.3,0.1l-0.5,0.2l-1,0.5l-2,1
			C423.5,141,420.8,142.3,418.1,143.6z"/>
	</g>
	<g>
		<path class="st4" d="M204.7,280.4c-2.3,2-10.8,4.4-13.2,5.1c-0.4,0.1-0.9,0.1-1.3-0.1c-1.1-0.6-1.9-1.3-2.6-2
			c-2.2-2.5-2.4-5.6-2.3-7c0-0.6,0.3-1.1,0.8-1.4c5.2-3.5,10.2-5.4,10.4-5.5c0,0,0,0,0,0c0,0,4.5,3.6,7,6.9
			C204.9,277.9,205.6,279.5,204.7,280.4z"/>
		<path class="st9" d="M299.8,226.7l-11.4,13.7c0,0-58.6,31.4-83.7,40c-1,0.4-2,0.7-2.9,0.9c0,0-2.5-0.1-4.5-2.1
			c-0.6-0.6-1.1-1.3-1.6-2.2c-1.7-3.5,0-7.3,0-7.3s0.3-0.1,0.8-0.4c0,0,0,0,0,0c6.7-3.5,52.5-27.1,84.8-41.7l17.8-2
			c0.4,0,0.7,0.3,0.8,0.6C300,226.3,300,226.6,299.8,226.7z"/>
		<path class="st4" d="M299.8,226.7l-2.5,3l-8.9,10.7c-4-0.1-1.7-1.8-2.6-2.2c-0.9-0.4-1.4,0.1-2.9-1c-1.4-1.1,0.7-2.7,0-3.4
			c-0.7-0.8-2-1.1-2.1-2.8c-0.1-1.7,0.6-3.4,0.6-3.4l13.4-1.5l4.5-0.5C299.8,225.5,300.2,226.2,299.8,226.7z"/>
		<path class="st6" d="M299.8,226.7l-2.5,3c-0.9-0.3-1.7-0.7-2.2-1.3c-0.5-0.8-0.5-1.6-0.5-2.3l4.5-0.5
			C299.8,225.5,300.2,226.2,299.8,226.7z"/>
		<path class="st7" d="M299.8,226.7l-11.4,13.7c0,0-58.6,31.4-83.7,40c-2.3,2-10.8,4.4-13.2,5.1c-0.4,0.1-0.9,0.1-1.3-0.1
			c-1.1-0.6-1.9-1.3-2.6-2l0,0l9.7-4h0l6.3-3.1l79.3-39l17.1-11C300,226.3,300,226.6,299.8,226.7z"/>
		<path class="st8" d="M186.5,276.6c1.9-1.2,3.7-2.4,5.6-3.5l1.4-0.9l0.7-0.4l0.4-0.2l0.2-0.1l0.2-0.1l2.9-1.6
			c1-0.5,1.9-1.1,2.9-1.5c1-0.5,2-1,3-1.4l5.9-2.9l23.6-11.6l23.6-11.6l11.8-5.8l5.9-2.9c2-1,3.9-1.9,5.9-2.9l0.1,0l0.1,0
			c0.3-0.1,0.7-0.2,1-0.2c0.3-0.1,0.7-0.1,1-0.2l2.1-0.3l4.2-0.7l4.2-0.7l4.2-0.6l-4.1,1.1l-4.1,1.1l-4.1,1.1L283,230
			c-0.3,0.1-0.7,0.2-1,0.3c-0.3,0.1-0.7,0.1-1,0.2l0.2-0.1c-2,1-3.9,1.9-5.9,2.9l-5.9,2.9l-11.8,5.8l-23.6,11.6l-23.6,11.6l-5.9,2.9
			c-1,0.5-2,1-2.9,1.5c-1,0.5-2,0.9-3,1.4l-3,1.3l-0.1,0l0,0l0,0c0,0,0,0,0,0l-0.2,0.1l-0.4,0.2l-0.7,0.4l-1.5,0.7
			C190.4,274.7,188.4,275.7,186.5,276.6z"/>
	</g>
	<g>
		<g>
			<g>
				<path class="st10" d="M439.4,255.8c0,0-6.4,1.5-14.5-1.8c-2.2-0.9-4.6-2.3-7-4.1c-11.1-8.5-10.8-21.3-10.8-21.3l13.8-17.3
					c0,0,1.8,13.9,4.9,23.3c1.1,3.4,2.4,6.2,3.8,7.6c5.5,5.2,12.1,7.8,12.1,7.8L439.4,255.8z"/>
				<path class="st11" d="M424.9,254c-2.2-0.9-4.6-2.3-7-4.1c-11.1-8.5-10.8-21.3-10.8-21.3l13.8-17.3c0,0,1.8,13.9,4.9,23.3
					C424.6,240.5,423.6,248.2,424.9,254z"/>
				<path class="st12" d="M442.8,249.5c0,0-1.1-3-5.1-0.8s-4.5,9.6,0.5,8C443.3,255.2,442.8,249.5,442.8,249.5z"/>
				<path class="st13" d="M441,249.4c0,0-4.3,0.7-4.8,4.6c-0.5,3.8,7.4,3.6,7.4,3.6S451,252.5,441,249.4z"/>
				<path class="st6" d="M436.3,253.4c0,0-0.4-2.1,3.1-3.9c3.3-1.8,11.3,3.3,9.8,5.8c-1.5,2.5-3.9-1.9-3.9-1.9
					S439.7,256,436.3,253.4z"/>
			</g>
			<path class="st10" d="M391.1,204c0,0-34.4,29.8-23.3,52.1c7.9,15.9,59.2,8.1,54.5-44.4L391.1,204z"/>
			<path class="st14" d="M368.1,234.7c0,0,15.3,20.5,44.5,14.7c0,0,3.4,7.4-10.8,6.7c-3.9-0.2-11.7-1.3-20.3-6
				C373.8,245.9,361.2,236.2,368.1,234.7z"/>
			<path class="st13" d="M420.2,266c0,0,3.9,0.8,4.9,2.1c1,1.3-0.6,1.8-0.6,1.8s-3.1-1.4-3.3-0.6c-0.3,0.7,3.2,2.4,3.2,2.4
				s-0.2,1.5-1,1.6c-0.8,0.1-3.6-2-3.6-1.4s0.9,2.4,2.1,3c0,0-0.5,1.3-1.6,1c-1.1-0.3-2.2-2.3-2.9-2c-0.7,0.3,0.2,1.8,0.5,2
				c0.3,0.2,0,1.3-1.3,0.6c-1.3-0.7-3-4-3-4L420.2,266z"/>
			<path class="st6" d="M414.8,262.6c0,0,3.4-2.7,6.9-1.6c0,0,0.4,1.5-0.7,2.2c-1.2,0.7-2-0.2-2.6,1.3c-0.3,0.9,2.6,1.5,3,2.4
				c0.9,2-1.9,6.6-4.7,7.3c-2.7,0.7-7.4-5.1-7.4-5.1L414.8,262.6z"/>
			<path class="st15" d="M396.9,212.4c3.4-1.4,8-2,10.7,10c2.8,11.9-0.9,30.9,8.6,40.2c0,0-0.3,5.8-6.9,6.6c0,0-18.3-8.3-20.4-26.5
				C386.7,224.3,390.8,215,396.9,212.4z"/>
			<path class="st6" d="M366.7,238.6c0,0-6.5,16.4,2.8,24.5c9.3,8.1,25.1,9.1,25.1,9.1s-5.5,10.7-12.7,11c0,0,0.1,9.2,5.7,11.1
				c0,0,18.9-1.7,25.6-12.1c6.7-10.4-0.9-23.5-11.7-28.1C401.4,254.1,377.4,251,366.7,238.6z"/>
			<path class="st10" d="M391.7,276.6c0,0,2.9,10.3,9.6,14.3c0,0,0.9,1.5-1.2,2.9c-2.2,1.3-11.3,1.1-11.3,1.1s4,3.9,3.1,7.6
				c-0.9,3.7-8.5,5.5-8.5,5.5s-11.7-10-10.1-20.6c0,0,1.3-4.2,8.7-4.2C381.9,283.2,389.4,274.6,391.7,276.6z"/>
			<path class="st12" d="M418.3,213.5c0,0,9.8-2.6,9.9-6.7c0.1-4.2-4.2-4.5-4.2-4.5s-8.1-7.9-11.7-6
				C408.7,198.1,411.4,205.7,418.3,213.5z"/>
			<g>
				<path class="st16" d="M432.1,194.5c0,0,3.5,4.1,10.1,3.8c6.6-0.3,7.9,4.6,5.1,6.7c-2.8,2-5,2-5,2s4.9-2.9,2.8-5.2
					c-2.1-2.3-8.8,0.8-13.9-3.5L432.1,194.5z"/>
				<path class="st17" d="M376.1,189.1c-2.6-0.8-6.3,4.2-5.1,5.6c1.1,1.4,2.8,0.9,5.1-3C376.1,191.8,378.7,189.9,376.1,189.1z
					 M375.4,191.9c-1.6,2.7-2.8,3-3.5,2.1c-0.8-1,1.7-4.4,3.5-3.9C377.2,190.6,375.4,191.9,375.4,191.9z"/>
				<path class="st17" d="M445.9,202.7c-2.2-1.5-7.3,2-6.6,3.7c0.6,1.7,2.3,1.7,5.8-1.2C445.1,205.2,448.2,204.2,445.9,202.7z
					 M444.4,205.1c-2.4,2-3.6,2-4,0.8c-0.4-1.2,3-3.6,4.6-2.6C446.6,204.5,444.4,205.1,444.4,205.1z"/>
				<path class="st18" d="M435,192.3c-3.1,12.5-15.8,20.2-28.3,17.1c-12.5-3.1-20.2-15.8-17.1-28.3c3.1-12.5,15.8-20.2,28.3-17.1
					C430.4,167.1,438.1,179.7,435,192.3z"/>
				<path class="st19" d="M408,186.7c0,0,4.2-8.2,10.6-9.2c6.4-1,11.2,3.6,11.2,3.6l1.8-0.4c0,0-0.6-4.8,0.4-6.6
					c1.1-1.8,6.1,2.5,7.1,4.3c1,1.8,1.8,8.9-0.9,11.7c-2.8,2.8-3.6,3.2-6-2.9l-1,0.7c0,0,0.2,5-5.7,8.8c-5.9,3.8-17.4-3.6-17.4-3.6
					V186.7z"/>
				<path class="st16" d="M430.6,187.1c0,2.8-1.5,5.3-3.8,6.6c-1.1,0.6-2.4,1-3.8,1c-4.2,0-7.7-3.4-7.7-7.6c0-2.3,1-4.4,2.7-5.8
					c1.3-1.1,3.1-1.8,5-1.8C427.2,179.5,430.6,182.9,430.6,187.1z"/>
				<path class="st16" d="M439.7,183.5c0,3.1-1.1,5.8-2.5,6.4c-0.2,0.1-0.4,0.2-0.7,0.2c-1.8,0-3.2-2.9-3.2-6.6
					c0-2.4,0.6-4.4,1.5-5.6c0.5-0.6,1-1,1.6-1C438.3,176.9,439.7,179.9,439.7,183.5z"/>
				<path class="st20" d="M429.4,187.9c0,2.3-1,4.4-2.7,5.8c-1.1,0.6-2.4,1-3.8,1c-4.2,0-7.7-3.4-7.7-7.6c0-2.3,1-4.4,2.7-5.8
					c1.1-0.6,2.4-1,3.8-1C426,180.3,429.4,183.7,429.4,187.9z"/>
				<path class="st20" d="M438.7,184.3c0,2.4-0.6,4.4-1.5,5.6c-0.2,0.1-0.4,0.2-0.7,0.2c-1.8,0-3.2-2.9-3.2-6.6
					c0-2.4,0.6-4.4,1.5-5.6c0.2-0.1,0.4-0.1,0.7-0.1C437.3,177.7,438.7,180.7,438.7,184.3z"/>
				<path class="st21" d="M436,174c0,0,2.1,3.3-4,5.4c0,0,1.5-1.6,1.3-3c0,0-2.1,4-9.3,3c0,0,4.1-2,4.1-3.4c0,0-10.7,2.8-15,0.7
					C408.9,174.8,433.6,166.3,436,174z"/>
				<path class="st15" d="M434.6,171.1c0,0-4.9-12.6-21.3-13.8c-16.4-1.1-26.7,10.2-27.2,22.9c-0.5,12.7,5.8,20.1,5.8,20.1
					s4.2,0.2,6.7,1c2.4,0.9,6.6,1,7.9-8.2c1.3-9.1,1.4-16.8,11.4-20.3S434.6,171.1,434.6,171.1z"/>
				<path class="st10" d="M415.6,174c0,0-7.8-13.1-20.7-10.5C394.9,163.5,404,161.7,415.6,174z"/>
				<path class="st10" d="M431.4,168.9c0,0-2.1-5.1-6.5-8.1C424.9,160.8,429.5,165.9,431.4,168.9z"/>
				<path class="st10" d="M434.6,170.3c-3-1.9-9.1-3.2-17.9,1.3c-11.8,6.1-11.7,21.1-12.9,24.6c-1.5,4.5-3.9,4.4-6.2,3.1
					c-0.2-0.2-0.4-0.3-0.6-0.4c0,0-4-1.8-6.9-1.1c0,0,0.3,1.4,1.7,2.6s3.7,0,7.8,1.6c0,0,0,0,0,0c0.9,0.3,2.1,0.4,3.8,0.1
					c5.8-1.2,3-14.3,9.9-23c5.2-6.6,17.2-7.7,20.1-7.2c2.8,0.5,2.7,2.1,2.7,2.1S437.6,172.2,434.6,170.3z"/>
				<path class="st22" d="M432.5,190c0,0,3.6-0.9,4,1.5s-4,4.2-4,4.2S429.5,193.3,432.5,190z"/>
				<path class="st6" d="M424,181.9c0,0-1.6,7-5.3,9.8c0,0-4.1-2.4-1.2-7.9C419.8,179.7,424,181.9,424,181.9z"/>
				<path class="st6" d="M424.9,182.5c0,0-1.2,5.5-3,7.4c0,0,3-2.6,4.2-6.4C426.1,183.5,425.5,182.7,424.9,182.5z"/>
				<path class="st6" d="M436,178.9c0,0,0.3,5.6-1.5,7.7C434.6,186.6,433.7,180.3,436,178.9z"/>
				<path class="st6" d="M436.4,179.6c0,0,0.6,4.6-0.8,6.6C435.7,186.2,438.9,181.4,436.4,179.6z"/>
				<path class="st23" d="M431.4,197.7c-0.1,3.2-5.1,7.7-9.6,7.3c-2.8-0.3-3.5-2.2-3.5-3.5c0-0.8,0.1-1.4,0.1-1.4
					c7.1,0.4,10.6-0.9,12.1-1.7C431.2,197.9,431.4,197.7,431.4,197.7z"/>
				<path class="st24" d="M430.5,198.3l-1.1,1.7c0,0-7,2.2-11.1,1.4c0-0.8,0.1-1.4,0.1-1.4C425.4,200.4,429,199.1,430.5,198.3z"/>
				<path class="st17" d="M405.3,197.7c0,0-1.3,2.8-3.4,3.1c0,0,2.4,3.5,0.9,4.2c0,0,6,2.9,5.2-2.7
					C408,202.3,406.8,199.2,405.3,197.7z"/>
				<path class="st16" d="M405.8,198.3c0,0,4,5.6,1.1,6.7c-4.8,1.8-16.4-18.5-31.2-14.1l-1.6,2.9c0,0,5.8-2,11.1,0.1
					s11.3,11.9,16.5,12.4S411.3,204.9,405.8,198.3z"/>
			</g>
			<path class="st14" d="M418.3,213.5c-1.3-2.4-16.1-4.3-20.5-3.4c-3,0.6-7.3,0-10.3-1.1c-1.6-0.6-2.8-1.4-3.4-2.2
				c-1.7-2.4,2-4.5,2-4.5s-1.8-2,2.2-3.5c4.1-1.5,18.9,5.1,18.9,5.1s-0.3-1.4,3.4-0.3c0.2,0.1,0.5,0.1,0.8,0.3
				C415.4,205.5,417.9,212.3,418.3,213.5z"/>
			<path class="st24" d="M410.6,203.7c-2.1,0.4-2.6,2.5-2.6,2.5s-1.9-2.7-4.8-2.8c-2.9-0.1-2.8,0.6-2.8,0.6s-5.1-2-7.6-1.7
				c-2.5,0.3-1.5,2.7-1.5,2.7s-3-0.7-4.7,0c-1.8,0.7,0.9,4,0.9,4h0c-1.6-0.6-2.8-1.4-3.4-2.2c-1.7-2.4,2-4.5,2-4.5s-1.8-2,2.2-3.5
				c4.1-1.5,18.9,5.1,18.9,5.1S406.9,202.5,410.6,203.7z"/>
			<path class="st11" d="M418.3,213.5c0,0,1.4,21.8-7.1,35.5c0,0,9.3-10.4,8.1-35.8L418.3,213.5z"/>
		</g>
		<g>
			<g>
				<path class="st14" d="M496.9,245.2c6.9,0,10.5,4.7,10.5,4.7s-28.3,1.3-44.5,22.5C462.9,272.4,473.8,245.3,496.9,245.2z"/>
				<path class="st14" d="M481.3,241c4.9-1.1,8.1,1.7,8.1,1.7s-24.1,13.4-33.1,28.4C456.3,271.2,464.8,244.9,481.3,241z"/>
				<path class="st25" d="M515.3,266c0,0-38.8,21.2-49.8,21.4S489.9,259.2,515.3,266z"/>
				<path class="st26" d="M505.3,264.2c-12.7,0.8-35.2,9-58,22s-11.7,17.6-11.7,17.6l27.7-9.4l3.5-1.6c0,0,9-14.5,20.5-21.7
					C498.8,264,505.3,264.2,505.3,264.2z"/>
				<path class="st27" d="M468.2,292.2c0,0,16.7-31,47-26.2c0,0,0-0.8-4.3-1.6c-4.3-0.8-30.7-1.7-44.2,26.9L468.2,292.2z"/>
				<path class="st28" d="M434,273c0,0,32-27.1,63-27.8c0,0-19.2,2.5-34.3,45.9l-34.7,3.9L434,273z"/>
				<path class="st24" d="M461.3,289.5c0,0-0.3-38.7,20-48.5c0,0-41.5,8.6-73.6,34.9c-32.1,26.3-7.1,31.3-7.1,31.3L461.3,289.5z"/>
			</g>
			<g>
				<path class="st14" d="M459.7,289.5c0,0-18.7-24.2-52.1-35.1c-33.4-10.9-66.5-6.7-66.5-6.7l-27.9,25.1L459.7,289.5z"/>
				<path class="st28" d="M457.7,292.5l-86,36.6c0,0-93-22.2-136,1.4c0,0,0,0,0,0c2-1.9,60.3-58.1,91.7-77.7
					c0,0,80.1-10.3,126.3,35.5C455,289.6,456.3,291,457.7,292.5z"/>
				<path class="st29" d="M457.7,292.5l-86,36.6c0,0-93-22.2-136,1.4c0,0,0,0,0,0c2.3-1.7,75.9-55,116.2-69.7
					c0,0,39.5-10.5,101.7,27.5C455,289.6,456.3,291,457.7,292.5z"/>
				<path class="st30" d="M452.7,294.4c0,0,1.2-7.3,7.2-7c6,0.3,6.8,4,6.8,4S463.8,296.2,452.7,294.4z"/>
				<path class="st27" d="M466.9,294.3c-2.8,2.8-95.8,41.1-108.6,40c-0.4,0-0.7-0.1-0.9-0.2c-8.4-3.5,99-41.9,99-41.9
					s10.3,0.6,12.5-2.7c0,0,0,0,0,0C469,289.7,469.6,291.5,466.9,294.3z"/>
				<path class="st27" d="M457.3,292.2l-2.2,0.9l-98.8,41.2c0,0-66-19.8-129,18.1c0,0,0,0,0,0s-5.9-3.8,64.1-51.7
					c27.1-18.6,75-34.8,75-34.8S416.3,260.8,457.3,292.2z"/>
				<path class="st31" d="M455.1,293.2l-98.8,41.2c0,0-66-19.8-129,18.1c1.1-1,72.5-66.8,140.5-84
					C367.7,268.5,413.2,264.2,455.1,293.2z"/>
				<path class="st32" d="M356.3,334.3l101-42.1c0,0,4-0.1-5.3,4.3C442.6,300.8,362,334.2,356.3,334.3z"/>
				<path class="st31" d="M466.9,294.3c-2.8,2.8-95.8,41.1-108.6,40c14.1-3.5,99.8-40,99.8-40c11.8,1.4,10.9-4.4,10.8-4.8
					C469,289.7,469.6,291.5,466.9,294.3z"/>
			</g>
		</g>
	</g>
	<g>
		<path class="st14" d="M405.3,98.2c2.6,0,4,1.8,4,1.8s-10.8,0.5-16.9,8.6C392.4,108.5,396.5,98.3,405.3,98.2z"/>
		<path class="st14" d="M399.4,96.6c1.9-0.4,3.1,0.7,3.1,0.7s-9.2,5.1-12.6,10.8C389.8,108.1,393.1,98.1,399.4,96.6z"/>
		<path class="st33" d="M412.3,106.1c0,0-14.8,8.1-19,8.1C389.2,114.3,402.7,103.5,412.3,106.1z"/>
		<path class="st4" d="M408.5,105.4c-4.8,0.3-13.4,3.4-22.1,8.4c-8.7,4.9-4.4,6.7-4.4,6.7l10.5-3.6l1.3-0.6c0,0,3.4-5.5,7.8-8.2
			C406,105.4,408.5,105.4,408.5,105.4z"/>
		<path class="st21" d="M394.4,116.1c0,0,6.3-11.8,17.9-10c0,0,0-0.3-1.6-0.6c-1.6-0.3-11.7-0.7-16.8,10.2L394.4,116.1z"/>
		<path class="st28" d="M381.4,108.8c0,0,12.2-10.3,24-10.6c0,0-7.3,1-13.1,17.5l-13.2,1.5L381.4,108.8z"/>
		<path class="st24" d="M391.8,115.1c0,0-0.1-14.7,7.6-18.5c0,0-15.8,3.3-28,13.3c-12.2,10-2.7,11.9-2.7,11.9L391.8,115.1z"/>
		<path class="st14" d="M391.2,115.1c0,0-7.1-9.2-19.8-13.4c-12.7-4.1-25.3-2.5-25.3-2.5l-10.6,9.6L391.2,115.1z"/>
		<path class="st28" d="M390.4,116.2l-32.7,13.9c0,0-35.4-8.4-51.7,0.5c0,0,0,0,0,0c0.8-0.7,22.9-22.1,34.9-29.6
			c0,0,30.5-3.9,48,13.5C389.4,115.1,389.9,115.7,390.4,116.2z"/>
		<path class="st29" d="M390.4,116.2l-32.7,13.9c0,0-35.4-8.4-51.7,0.5c0,0,0,0,0,0c0.9-0.6,28.9-20.9,44.2-26.5c0,0,15-4,38.7,10.5
			C389.4,115.1,389.9,115.7,390.4,116.2z"/>
		<path class="st30" d="M388.5,116.9c0,0,0.5-2.8,2.7-2.7c2.3,0.1,2.6,1.5,2.6,1.5S392.7,117.6,388.5,116.9z"/>
		<path class="st21" d="M393.9,116.9c-1,1.1-36.5,15.7-41.3,15.2c-0.1,0-0.2,0-0.3-0.1c-3.2-1.3,37.7-15.9,37.7-15.9s3.9,0.2,4.8-1
			c0,0,0,0,0,0C394.7,115.2,394.9,115.9,393.9,116.9z"/>
		<path class="st21" d="M390.2,116.1l-0.8,0.4l-37.6,15.7c0,0-25.1-7.5-49.1,6.9c0,0,0,0,0,0s-2.2-1.4,24.4-19.7
			c10.3-7.1,28.5-13.2,28.5-13.2S374.6,104.2,390.2,116.1z"/>
		<path class="st21" d="M389.4,116.5l-37.6,15.7c0,0-25.1-7.5-49.1,6.9c0.4-0.4,27.6-25.4,53.4-31.9
			C356.2,107.1,373.5,105.5,389.4,116.5z"/>
		<path class="st33" d="M351.8,132.1l38.4-16c0,0,1.5,0-2,1.6C384.6,119.4,354,132.1,351.8,132.1z"/>
		<path class="st31" d="M393.9,116.9c-1,1.1-36.5,15.7-41.3,15.2c5.4-1.3,38-15.2,38-15.2c4.5,0.5,4.1-1.7,4.1-1.8
			C394.7,115.2,394.9,115.9,393.9,116.9z"/>
	</g>
	<g>
		<path class="st14" d="M583.9,168.6c2.6,0,4,1.8,4,1.8s-10.8,0.5-16.9,8.6C571,179,575.1,168.7,583.9,168.6z"/>
		<path class="st14" d="M577.9,167.1c1.9-0.4,3.1,0.7,3.1,0.7s-9.2,5.1-12.6,10.8C568.4,178.5,571.7,168.5,577.9,167.1z"/>
		<path class="st34" d="M590.9,176.6c0,0-14.8,8.1-19,8.1C567.7,184.8,581.2,174,590.9,176.6z"/>
		<path class="st35" d="M587.1,175.9c-4.8,0.3-13.4,3.4-22.1,8.4c-8.7,4.9-4.4,6.7-4.4,6.7l10.5-3.6l1.3-0.6c0,0,3.4-5.5,7.8-8.2
			C584.6,175.8,587.1,175.9,587.1,175.9z"/>
		<path class="st36" d="M573,186.6c0,0,6.3-11.8,17.9-10c0,0,0-0.3-1.6-0.6c-1.6-0.3-11.7-0.7-16.8,10.2L573,186.6z"/>
		<path class="st28" d="M559.9,179.2c0,0,12.2-10.3,24-10.6c0,0-7.3,1-13.1,17.5l-13.2,1.5L559.9,179.2z"/>
		<path class="st24" d="M570.3,185.5c0,0-0.1-14.7,7.6-18.5c0,0-15.8,3.3-28,13.3c-12.2,10-2.7,11.9-2.7,11.9L570.3,185.5z"/>
		<path class="st14" d="M569.8,185.5c0,0-7.1-9.2-19.8-13.4c-12.7-4.1-25.3-2.5-25.3-2.5l-10.6,9.6L569.8,185.5z"/>
		<path class="st28" d="M569,186.6l-32.7,13.9c0,0-35.4-8.4-51.7,0.5c0,0,0,0,0,0c0.7-0.7,22.9-22.1,34.9-29.6c0,0,30.5-3.9,48,13.5
			C568,185.6,568.5,186.1,569,186.6z"/>
		<path class="st29" d="M569,186.6l-32.7,13.9c0,0-35.4-8.4-51.7,0.5c0,0,0,0,0,0c0.9-0.6,28.9-20.9,44.2-26.5c0,0,15-4,38.7,10.5
			C568,185.6,568.5,186.1,569,186.6z"/>
		<path class="st30" d="M567.1,187.4c0,0,0.5-2.8,2.7-2.7c2.3,0.1,2.6,1.5,2.6,1.5S571.3,188.1,567.1,187.4z"/>
		<path class="st36" d="M572.5,187.3c-1,1.1-36.5,15.7-41.3,15.2c-0.1,0-0.2,0-0.3-0.1c-3.2-1.3,37.7-15.9,37.7-15.9s3.9,0.2,4.8-1
			c0,0,0,0,0,0C573.3,185.6,573.5,186.3,572.5,187.3z"/>
		<path class="st36" d="M568.8,186.6l-0.8,0.4l-37.6,15.7c0,0-25.1-7.5-49.1,6.9c0,0,0,0,0,0s-2.2-1.4,24.4-19.7
			c10.3-7.1,28.5-13.2,28.5-13.2S553.2,174.6,568.8,186.6z"/>
		<path class="st37" d="M568,186.9l-37.6,15.7c0,0-25.1-7.5-49.1,6.9c0.4-0.4,27.6-25.4,53.4-31.9C534.7,177.5,552,175.9,568,186.9z
			"/>
		<path class="st34" d="M530.4,202.6l38.4-16c0,0,1.5,0-2,1.6C563.2,189.8,532.6,202.5,530.4,202.6z"/>
		<path class="st37" d="M572.5,187.3c-1,1.1-36.5,15.7-41.3,15.2c5.4-1.3,38-15.2,38-15.2c4.5,0.5,4.1-1.7,4.1-1.8
			C573.3,185.6,573.5,186.3,572.5,187.3z"/>
	</g>
	<g>
		<path class="st0" d="M249.8,78c0.8,0,1.3,0.6,1.3,0.6s-3.5,0.2-5.5,2.8C245.6,81.4,247,78.1,249.8,78z"/>
		<path class="st0" d="M247.9,77.5c0.6-0.1,1,0.2,1,0.2s-3,1.6-4.1,3.5C244.8,81.2,245.9,78,247.9,77.5z"/>
		<path class="st0" d="M252.1,80.6c0,0-4.8,2.6-6.1,2.6C244.6,83.2,248.9,79.7,252.1,80.6z"/>
		<path class="st0" d="M250.8,80.4c-1.6,0.1-4.3,1.1-7.1,2.7c-2.8,1.6-1.4,2.2-1.4,2.2l3.4-1.2l0.4-0.2c0,0,1.1-1.8,2.5-2.7
			C250,80.3,250.8,80.4,250.8,80.4z"/>
		<path class="st0" d="M246.3,83.8c0,0,2-3.8,5.8-3.2c0,0,0-0.1-0.5-0.2c-0.5-0.1-3.8-0.2-5.4,3.3L246.3,83.8z"/>
		<path class="st0" d="M242.1,81.4c0,0,3.9-3.3,7.7-3.4c0,0-2.4,0.3-4.2,5.6l-4.3,0.5L242.1,81.4z"/>
		<path class="st0" d="M245.4,83.5c0,0,0-4.7,2.5-5.9c0,0-5.1,1.1-9,4.3c-3.9,3.2-0.9,3.8-0.9,3.8L245.4,83.5z"/>
		<path class="st0" d="M245.2,83.5c0,0-2.3-3-6.4-4.3c-4.1-1.3-8.2-0.8-8.2-0.8l-3.4,3.1L245.2,83.5z"/>
		<path class="st0" d="M245,83.8l-10.6,4.5c0,0-11.4-2.7-16.7,0.2c0,0,0,0,0,0c0.2-0.2,7.4-7.1,11.2-9.5c0,0,9.8-1.3,15.5,4.4
			C244.7,83.5,244.8,83.7,245,83.8z"/>
		<path class="st38" d="M245,83.8l-10.6,4.5c0,0-11.4-2.7-16.7,0.2c0,0,0,0,0,0c0.3-0.2,9.3-6.7,14.3-8.5c0,0,4.8-1.3,12.5,3.4
			C244.7,83.5,244.8,83.7,245,83.8z"/>
		<path class="st0" d="M244.4,84.1c0,0,0.1-0.9,0.9-0.9c0.7,0,0.8,0.5,0.8,0.5S245.7,84.3,244.4,84.1z"/>
		<path class="st0" d="M246.1,84.1c-0.3,0.3-11.8,5-13.3,4.9c0,0-0.1,0-0.1,0c-1-0.4,12.1-5.1,12.1-5.1s1.3,0.1,1.5-0.3c0,0,0,0,0,0
			C246.4,83.5,246.5,83.7,246.1,84.1z"/>
		<path class="st0" d="M244.9,83.8l-0.3,0.1L232.6,89c0,0-8.1-2.4-15.8,2.2c0,0,0,0,0,0s-0.7-0.5,7.9-6.3c3.3-2.3,9.2-4.3,9.2-4.3
			S239.9,79.9,244.9,83.8z"/>
		<path class="st2" d="M244.7,83.9L232.6,89c0,0-8.1-2.4-15.8,2.2c0.1-0.1,8.9-8.2,17.2-10.3C234,80.9,239.5,80.4,244.7,83.9z"/>
		<path class="st0" d="M232.6,89l12.4-5.2c0,0,0.5,0-0.7,0.5C243.1,84.9,233.3,88.9,232.6,89z"/>
		<path class="st2" d="M246.1,84.1c-0.3,0.3-11.8,5-13.3,4.9c1.7-0.4,12.2-4.9,12.2-4.9c1.4,0.2,1.3-0.5,1.3-0.6
			C246.4,83.5,246.5,83.7,246.1,84.1z"/>
	</g>
	<g>
		<path class="st0" d="M200.5,338.7c1.3,0,2,0.9,2,0.9s-5.4,0.3-8.5,4.3C194,343.9,196,338.8,200.5,338.7z"/>
		<path class="st0" d="M197.5,337.9c0.9-0.2,1.5,0.3,1.5,0.3s-4.6,2.6-6.3,5.5C192.7,343.7,194.3,338.7,197.5,337.9z"/>
		<path class="st0" d="M204,342.7c0,0-7.4,4.1-9.6,4.1C192.3,346.9,199.1,341.4,204,342.7z"/>
		<path class="st0" d="M202.1,342.4c-2.4,0.2-6.7,1.7-11.1,4.2c-4.4,2.5-2.2,3.4-2.2,3.4l5.3-1.8l0.7-0.3c0,0,1.7-2.8,3.9-4.2
			C200.8,342.3,202.1,342.4,202.1,342.4z"/>
		<path class="st0" d="M195,347.8c0,0,3.2-6,9-5c0,0,0-0.2-0.8-0.3c-0.8-0.1-5.9-0.3-8.5,5.2L195,347.8z"/>
		<path class="st0" d="M188.4,344.1c0,0,6.1-5.2,12.1-5.3c0,0-3.7,0.5-6.6,8.8l-6.7,0.8L188.4,344.1z"/>
		<path class="st0" d="M193.6,347.2c0,0-0.1-7.4,3.8-9.3c0,0-8,1.7-14.1,6.7c-6.2,5-1.4,6-1.4,6L193.6,347.2z"/>
		<path class="st0" d="M193.3,347.2c0,0-3.6-4.6-10-6.7c-6.4-2.1-12.8-1.3-12.8-1.3l-5.4,4.8L193.3,347.2z"/>
		<path class="st0" d="M192.9,347.8l-16.5,7c0,0-17.8-4.3-26.1,0.3c0,0,0,0,0,0c0.4-0.4,11.6-11.1,17.6-14.9c0,0,15.4-2,24.2,6.8
			C192.4,347.3,192.7,347.5,192.9,347.8z"/>
		<path class="st38" d="M192.9,347.8l-16.5,7c0,0-17.8-4.3-26.1,0.3c0,0,0,0,0,0c0.4-0.3,14.6-10.5,22.3-13.4c0,0,7.6-2,19.5,5.3
			C192.4,347.3,192.7,347.5,192.9,347.8z"/>
		<path class="st0" d="M192,348.2c0,0,0.2-1.4,1.4-1.3c1.1,0.1,1.3,0.8,1.3,0.8S194.1,348.5,192,348.2z"/>
		<path class="st0" d="M194.7,348.1c-0.5,0.5-18.4,7.9-20.8,7.7c-0.1,0-0.1,0-0.2,0c-1.6-0.7,19-8,19-8s2,0.1,2.4-0.5c0,0,0,0,0,0
			C195.1,347.3,195.2,347.6,194.7,348.1z"/>
		<path class="st0" d="M192.9,347.8l-0.4,0.2l-18.9,7.9c0,0-12.7-3.8-24.8,3.5c0,0,0,0,0,0s-1.1-0.7,12.3-9.9
			c5.2-3.6,14.4-6.7,14.4-6.7S185,341.7,192.9,347.8z"/>
		<path class="st2" d="M192.4,347.9l-18.9,7.9c0,0-12.7-3.8-24.8,3.5c0.2-0.2,13.9-12.8,26.9-16.1
			C175.7,343.2,184.4,342.4,192.4,347.9z"/>
		<path class="st0" d="M173.5,355.8l19.4-8.1c0,0,0.8,0-1,0.8C190,349.4,174.6,355.8,173.5,355.8z"/>
		<path class="st2" d="M194.7,348.1c-0.5,0.5-18.4,7.9-20.8,7.7c2.7-0.7,19.1-7.7,19.1-7.7c2.3,0.3,2.1-0.8,2.1-0.9
			C195.1,347.3,195.2,347.6,194.7,348.1z"/>
	</g>
	<g>
		<path class="st0" d="M377.8,51c0.5,0,0.7,0.3,0.7,0.3s-1.9,0.1-3,1.5C375.5,52.8,376.2,51,377.8,51z"/>
		<path class="st0" d="M376.8,50.7c0.3-0.1,0.6,0.1,0.6,0.1s-1.6,0.9-2.3,1.9C375.1,52.7,375.6,50.9,376.8,50.7z"/>
		<path class="st0" d="M379.1,52.4c0,0-2.7,1.4-3.4,1.5C374.9,53.8,377.4,51.9,379.1,52.4z"/>
		<path class="st0" d="M378.4,52.3c-0.9,0.1-2.4,0.6-4,1.5c-1.6,0.9-0.8,1.2-0.8,1.2l1.9-0.6l0.2-0.1c0,0,0.6-1,1.4-1.5
			C378,52.2,378.4,52.3,378.4,52.3z"/>
		<path class="st0" d="M375.9,54.2c0,0,1.1-2.1,3.2-1.8c0,0,0-0.1-0.3-0.1c-0.3-0.1-2.1-0.1-3,1.8L375.9,54.2z"/>
		<path class="st0" d="M373.5,52.9c0,0,2.2-1.9,4.3-1.9c0,0-1.3,0.2-2.3,3.1l-2.4,0.3L373.5,52.9z"/>
		<path class="st0" d="M375.4,54c0,0,0-2.6,1.4-3.3c0,0-2.8,0.6-5,2.4c-2.2,1.8-0.5,2.1-0.5,2.1L375.4,54z"/>
		<path class="st0" d="M375.3,54c0,0-1.3-1.7-3.6-2.4c-2.3-0.7-4.5-0.5-4.5-0.5l-1.9,1.7L375.3,54z"/>
		<path class="st0" d="M375.1,54.2l-5.9,2.5c0,0-6.4-1.5-9.3,0.1c0,0,0,0,0,0c0.1-0.1,4.1-4,6.3-5.3c0,0,5.5-0.7,8.6,2.4
			C375,54,375.1,54.1,375.1,54.2z"/>
		<path class="st38" d="M375.1,54.2l-5.9,2.5c0,0-6.4-1.5-9.3,0.1c0,0,0,0,0,0c0.2-0.1,5.2-3.8,7.9-4.8c0,0,2.7-0.7,7,1.9
			C375,54,375.1,54.1,375.1,54.2z"/>
		<path class="st0" d="M374.8,54.3c0,0,0.1-0.5,0.5-0.5c0.4,0,0.5,0.3,0.5,0.3S375.6,54.4,374.8,54.3z"/>
		<path class="st0" d="M375.8,54.3c-0.2,0.2-6.5,2.8-7.4,2.7c0,0,0,0-0.1,0c-0.6-0.2,6.8-2.9,6.8-2.9s0.7,0,0.9-0.2c0,0,0,0,0,0
			C375.9,54,376,54.1,375.8,54.3z"/>
		<path class="st0" d="M375.1,54.2l-0.2,0.1l-6.8,2.8c0,0-4.5-1.4-8.8,1.2c0,0,0,0,0,0s-0.4-0.3,4.4-3.5c1.9-1.3,5.1-2.4,5.1-2.4
			S372.3,52,375.1,54.2z"/>
		<path class="st2" d="M375,54.2l-6.8,2.8c0,0-4.5-1.4-8.8,1.2c0.1-0.1,5-4.6,9.6-5.7C369,52.5,372.1,52.3,375,54.2z"/>
		<path class="st0" d="M368.2,57l6.9-2.9c0,0,0.3,0-0.4,0.3C374.1,54.8,368.6,57,368.2,57z"/>
		<path class="st2" d="M375.8,54.3c-0.2,0.2-6.5,2.8-7.4,2.7c1-0.2,6.8-2.7,6.8-2.7c0.8,0.1,0.7-0.3,0.7-0.3
			C375.9,54,376,54.1,375.8,54.3z"/>
	</g>
	<g>
		<path class="st0" d="M188.2,225.2c0.5,0,0.7,0.3,0.7,0.3s-1.9,0.1-3,1.5C185.9,227,186.6,225.2,188.2,225.2z"/>
		<path class="st0" d="M187.1,224.9c0.3-0.1,0.6,0.1,0.6,0.1s-1.6,0.9-2.3,1.9C185.4,227,186,225.2,187.1,224.9z"/>
		<path class="st0" d="M189.5,226.6c0,0-2.7,1.5-3.4,1.5C185.3,228.1,187.7,226.1,189.5,226.6z"/>
		<path class="st0" d="M188.8,226.5c-0.9,0.1-2.4,0.6-4,1.5c-1.6,0.9-0.8,1.2-0.8,1.2l1.9-0.6l0.2-0.1c0,0,0.6-1,1.4-1.5
			C188.3,226.5,188.8,226.5,188.8,226.5z"/>
		<path class="st0" d="M186.2,228.4c0,0,1.1-2.1,3.2-1.8c0,0,0-0.1-0.3-0.1c-0.3-0.1-2.1-0.1-3,1.8L186.2,228.4z"/>
		<path class="st0" d="M183.9,227.1c0,0,2.2-1.9,4.3-1.9c0,0-1.3,0.2-2.3,3.1l-2.4,0.3L183.9,227.1z"/>
		<path class="st0" d="M185.8,228.2c0,0,0-2.6,1.4-3.3c0,0-2.8,0.6-5,2.4c-2.2,1.8-0.5,2.1-0.5,2.1L185.8,228.2z"/>
		<path class="st0" d="M185.7,228.2c0,0-1.3-1.7-3.6-2.4c-2.3-0.7-4.5-0.5-4.5-0.5l-1.9,1.7L185.7,228.2z"/>
		<path class="st0" d="M185.5,228.4l-5.9,2.5c0,0-6.4-1.5-9.3,0.1c0,0,0,0,0,0c0.1-0.1,4.1-4,6.3-5.3c0,0,5.5-0.7,8.6,2.4
			C185.3,228.2,185.4,228.3,185.5,228.4z"/>
		<path class="st38" d="M185.5,228.4l-5.9,2.5c0,0-6.4-1.5-9.3,0.1c0,0,0,0,0,0c0.2-0.1,5.2-3.8,7.9-4.8c0,0,2.7-0.7,7,1.9
			C185.3,228.2,185.4,228.3,185.5,228.4z"/>
		<path class="st0" d="M185.2,228.5c0,0,0.1-0.5,0.5-0.5c0.4,0,0.5,0.3,0.5,0.3S185.9,228.7,185.2,228.5z"/>
		<path class="st0" d="M186.1,228.5c-0.2,0.2-6.5,2.8-7.4,2.7c0,0,0,0-0.1,0c-0.6-0.2,6.8-2.9,6.8-2.9s0.7,0,0.9-0.2c0,0,0,0,0,0
			C186.3,228.2,186.3,228.4,186.1,228.5z"/>
		<path class="st0" d="M185.5,228.4l-0.2,0.1l-6.8,2.8c0,0-4.5-1.4-8.8,1.2c0,0,0,0,0,0s-0.4-0.3,4.4-3.5c1.9-1.3,5.1-2.4,5.1-2.4
			S182.7,226.3,185.5,228.4z"/>
		<path class="st2" d="M185.3,228.5l-6.8,2.8c0,0-4.5-1.4-8.8,1.2c0.1-0.1,5-4.6,9.6-5.7C179.4,226.8,182.5,226.5,185.3,228.5z"/>
		<path class="st0" d="M178.6,231.3l6.9-2.9c0,0,0.3,0-0.4,0.3C184.5,229,179,231.3,178.6,231.3z"/>
		<path class="st2" d="M186.1,228.5c-0.2,0.2-6.5,2.8-7.4,2.7c1-0.2,6.8-2.7,6.8-2.7c0.8,0.1,0.7-0.3,0.7-0.3
			C186.3,228.2,186.3,228.4,186.1,228.5z"/>
	</g>
</g>
<g>
	<rect x="54.4" y="46.3" class="st39" width="642.3" height="382.8"/>
</g>
</svg>
